<svg xmlns="http://www.w3.org/2000/svg" width="32" height="32" viewBox="0 0 32 32">
    <g data-name="그룹 366">
        <path d="M8 24.4v-1.8h2.52v-9.18a7.243 7.243 0 0 1 1.485-4.485A6.4 6.4 0 0 1 15.92 6.46v-.87a1.474 1.474 0 0 1 .495-1.14 1.785 1.785 0 0 1 2.37 0 1.474 1.474 0 0 1 .495 1.14v.87a6.462 6.462 0 0 1 3.93 2.475 7.2 7.2 0 0 1 1.5 4.485v9.18h2.49v1.8zm9.6-8.85zm0 12.45a2.326 2.326 0 0 1-1.68-.7 2.287 2.287 0 0 1-.72-1.7H20a2.407 2.407 0 0 1-2.4 2.4zm-5.28-5.4h10.59v-9.18a5.2 5.2 0 0 0-1.53-3.78 5.05 5.05 0 0 0-3.75-1.56 5.1 5.1 0 0 0-3.765 1.56 5.173 5.173 0 0 0-1.545 3.78z" transform="translate(-1)" style="fill:#fff"/>
        <path data-name="사각형 214" style="fill:none" d="M0 0h32v32H0z"/>
    </g>
</svg>
