<svg xmlns="http://www.w3.org/2000/svg" width="18" height="18" viewBox="0 0 18 18">
    <g data-name="그룹 286">
        <path d="M12.182 20a5.53 5.53 0 0 1-4.127-1.744A5.884 5.884 0 0 1 6.364 14a5.884 5.884 0 0 1 1.691-4.256A5.53 5.53 0 0 1 12.182 8a5.53 5.53 0 0 1 4.127 1.744A5.884 5.884 0 0 1 18 14a5.884 5.884 0 0 1-1.691 4.256A5.53 5.53 0 0 1 12.182 20zm-5.564-.225a4.822 4.822 0 0 1-3.336-1.941A6.148 6.148 0 0 1 2 14a6.148 6.148 0 0 1 1.282-3.834 4.822 4.822 0 0 1 3.336-1.941v1.088a3.951 3.951 0 0 0-2.564 1.641 5.3 5.3 0 0 0 0 6.094 3.951 3.951 0 0 0 2.564 1.641zM12.182 14zm0 4.875a4.483 4.483 0 0 0 3.336-1.434A4.767 4.767 0 0 0 16.909 14a4.767 4.767 0 0 0-1.391-3.441 4.6 4.6 0 0 0-6.673 0A4.767 4.767 0 0 0 7.455 14a4.767 4.767 0 0 0 1.391 3.441 4.483 4.483 0 0 0 3.336 1.434z" transform="translate(-1 -5)" style="fill:#ffebee"/>
        <path data-name="사각형 168" style="fill:none" d="M0 0h18v18H0z"/>
    </g>
</svg>
