<svg xmlns="http://www.w3.org/2000/svg" width="24" height="24" viewBox="0 0 24 24">
    <g data-name="그룹 399">
        <path d="M12.372 21.325h8.855v-1.65h-8.855zm0-4.675h8.855V15h-8.855zM9.65 26A1.692 1.692 0 0 1 8 24.35V5.65a1.583 1.583 0 0 1 .495-1.155A1.583 1.583 0 0 1 9.65 4h9.928l6.022 6.023V24.35A1.692 1.692 0 0 1 23.95 26zm9.1-15.235V5.65h-9.1v18.7h14.3V10.765zM9.65 5.65z" transform="translate(-5.2 -3)" style="fill:#2b2b2b"/>
        <path data-name="사각형 220" style="fill:none" d="M0 0h24v24H0z"/>
    </g>
</svg>
