<svg xmlns="http://www.w3.org/2000/svg" width="24" height="24" viewBox="0 0 24 24">
    <g data-name="그룹 283">
        <path data-name="사각형 165" style="fill:none" d="M0 0h24v24H0z"/>
        <path d="M14 13.111a13.161 13.161 0 0 1-5.789-1.089Q6 10.933 6 9.556q0-1.4 2.211-2.478A13.278 13.278 0 0 1 14 6a13.278 13.278 0 0 1 5.789 1.078Q22 8.156 22 9.556q0 1.378-2.211 2.467A13.161 13.161 0 0 1 14 13.111zm0 4.444a14.732 14.732 0 0 1-5.622-.978Q6 15.6 6 14.222V12a1.849 1.849 0 0 0 .833 1.5A7.1 7.1 0 0 0 8.9 14.544a14.422 14.422 0 0 0 2.622.6 18.6 18.6 0 0 0 2.478.189 18.487 18.487 0 0 0 2.489-.189 15.1 15.1 0 0 0 2.611-.589 6.916 6.916 0 0 0 2.067-1.033A1.867 1.867 0 0 0 22 12v2.222q0 1.378-2.378 2.356a14.732 14.732 0 0 1-5.622.978zM14 22a14.732 14.732 0 0 1-5.622-.978Q6 20.044 6 18.667v-2.223a1.849 1.849 0 0 0 .833 1.5A7.1 7.1 0 0 0 8.9 18.989a14.422 14.422 0 0 0 2.622.6 18.6 18.6 0 0 0 2.478.189 18.487 18.487 0 0 0 2.489-.189A15.1 15.1 0 0 0 19.1 19a6.915 6.915 0 0 0 2.067-1.033A1.867 1.867 0 0 0 22 16.444v2.222q0 1.378-2.378 2.356A14.732 14.732 0 0 1 14 22z" transform="translate(-2 -2)" style="fill:#ffebee"/>
    </g>
</svg>
