<svg data-name="구성 요소 10 – 1" xmlns="http://www.w3.org/2000/svg" width="20" height="20" viewBox="0 0 20 20">
    <g data-name="그룹 158">
        <g data-name="그룹 157">
            <path data-name="제외 1" d="M8 0a7.921 7.921 0 0 0-5.954 2.247C.727 2.789 0 3.49 0 4.22s.727 1.43 2.046 1.973A7.921 7.921 0 0 0 8 8.439a9.9 9.9 0 0 0 3.522-.622 5.976 5.976 0 0 0 2.433-1.625C15.274 5.65 16 4.949 16 4.22s-.726-1.43-2.046-1.973A5.976 5.976 0 0 0 11.522.622 9.9 9.9 0 0 0 8 0zm0 6.33c-1.687 0-3.06-.946-3.06-2.11S6.313 2.11 8 2.11s3.059.946 3.059 2.11S9.687 6.33 8 6.33z" transform="rotate(180 9 7.22)" style="fill:#c9c6c6"/>
        </g>
        <path data-name="사각형 98" style="fill:none" d="M0 0h20v20H0z"/>
    </g>
</svg>
