<svg xmlns="http://www.w3.org/2000/svg" width="42" height="42" viewBox="0 0 42 42">
    <g data-name="그룹 297">
        <path data-name="사각형 175" style="fill:none" d="M0 0h42v42H0z"/>
        <path d="m16 27.29-1.23-1.11q-3.18-2.91-5.25-5.025a37.122 37.122 0 0 1-3.3-3.78 12.484 12.484 0 0 1-1.725-3.015A7.877 7.877 0 0 1 4 11.63a6.2 6.2 0 0 1 6.3-6.33 6.4 6.4 0 0 1 3.165.81A7.687 7.687 0 0 1 16 8.45a8.746 8.746 0 0 1 2.67-2.385A6.256 6.256 0 0 1 21.7 5.3a6.2 6.2 0 0 1 6.3 6.33 7.877 7.877 0 0 1-.5 2.73 12.484 12.484 0 0 1-1.725 3.015 37.122 37.122 0 0 1-3.3 3.78q-2.07 2.115-5.25 5.025z" transform="translate(5 4.7)" style="fill:#ff1d40"/>
    </g>
</svg>
