<svg xmlns="http://www.w3.org/2000/svg" width="80" height="80" viewBox="0 0 80 80">
    <g data-name="그룹 306" transform="translate(-1803 -44)">
        <circle data-name="타원 15" cx="40" cy="40" r="40" transform="translate(1803 44)" style="fill:#ff1d40"/>
        <path d="M10 37.724V8.4a2.539 2.539 0 0 1 .794-1.852 2.539 2.539 0 0 1 1.852-.794h14.818A8.167 8.167 0 0 0 25.943 8.2a7.766 7.766 0 0 0-.507 2.845 7.667 7.667 0 0 0 1.9 5.16 7.8 7.8 0 0 0 4.719 2.69 9.967 9.967 0 0 0 2.646 0v18.829l-12.353-5.293zm22.051-21.39v-3.969h-3.969V9.719h3.969V5.75H34.7v3.969h3.969v2.646H34.7v3.969z" transform="translate(1820 62.25)" style="fill:#fff"/>
    </g>
</svg>
