<svg xmlns="http://www.w3.org/2000/svg" width="48" height="48" viewBox="0 0 48 48">
    <g data-name="그룹 282">
        <g data-name="그룹 273">
            <path data-name="사각형 148" style="fill:none" d="M0 0h48v48H0z"/>
        </g>
        <path d="M9.68 29a22.754 22.754 0 0 1 4.98-2.42 16.791 16.791 0 0 1 5.34-.82 16.976 16.976 0 0 1 5.36.82 22.594 22.594 0 0 1 5 2.42 14.042 14.042 0 0 0 2.5-4.36A14.456 14.456 0 0 0 33.6 20 13.325 13.325 0 0 0 20 6.4 13.325 13.325 0 0 0 6.4 20a14.11 14.11 0 0 0 .76 4.64A14.4 14.4 0 0 0 9.68 29zM20 21.2a5.4 5.4 0 0 1-5.48-5.48A5.4 5.4 0 0 1 20 10.24a5.4 5.4 0 0 1 5.48 5.48A5.4 5.4 0 0 1 20 21.2zM20 36a15.679 15.679 0 0 1-6.28-1.26 15.922 15.922 0 0 1-8.48-8.54A15.8 15.8 0 0 1 4 19.96a15.481 15.481 0 0 1 1.26-6.2A15.99 15.99 0 0 1 8.7 8.68a16.4 16.4 0 0 1 5.1-3.42 15.982 15.982 0 0 1 12.44 0 15.975 15.975 0 0 1 8.5 8.5 15.982 15.982 0 0 1 0 12.44 16.4 16.4 0 0 1-3.42 5.1 15.99 15.99 0 0 1-5.08 3.44A15.58 15.58 0 0 1 20 36z" transform="translate(4 4)" style="fill:#2b2b2b"/>
    </g>
</svg>
