<?xml version="1.0" encoding="utf-8"?>
<!-- Generator: Adobe Illustrator 26.3.0, SVG Export Plug-In . SVG Version: 6.00 Build 0)  -->
<svg version="1.1" id="레이어_1" xmlns="http://www.w3.org/2000/svg" xmlns:xlink="http://www.w3.org/1999/xlink" x="0px"
	 y="0px" viewBox="0 0 114 26" style="enable-background:new 0 0 114 26;" xml:space="preserve">
<style type="text/css">
	.st0{fill:#FF3838;}
	.st1{opacity:0.8;fill:#FF3838;enable-background:new    ;}
	.st2{opacity:0.6;fill:#FF3838;enable-background:new    ;}
	.st3{opacity:0.4;fill:#FF3838;enable-background:new    ;}
</style>
<path d="M20.3,18.7v5.6h-3.2V13.1h3.2l4,5.6v-5.6h3.2v11.3h-3.2L20.3,18.7z"/>
<path d="M37.1,13.1v3.2h-4.8v0.8h4v3.2h-4v0.8h4.8v3.2h-8V13.1H37.1z"/>
<path d="M45.2,21.1L44,24.3h-2.8l-4-11.3h3.2l2.4,6.4l2.4-6.4l1.6,4.4l0.8,2l2.4-6.4h3.2l-4,11.3h-2.8L45.2,21.1z"/>
<path d="M56.9,20.3c-2.7,0-4-1.2-4-3.7c0-2.4,1.3-3.6,4-3.6h5.2v3.2h-5.2c-0.5,0-0.8,0.1-0.8,0.4c0,0.3,0.3,0.4,0.8,0.4h2.4
	c2.7,0,4,1.2,4,3.6c0,2.4-1.3,3.7-4,3.7h-5.2v-3.2h5.2c0.5,0,0.8-0.1,0.8-0.4s-0.3-0.4-0.8-0.4H56.9z"/>
<path class="st0" d="M67,20.3c-2.7,0-4-1.2-4-3.7c0-2.4,1.3-3.6,4-3.6h5.2v3.2H67c-0.5,0-0.8,0.1-0.8,0.4c0,0.3,0.3,0.4,0.8,0.4h2.4
	c2.7,0,4,1.2,4,3.6c0,2.4-1.3,3.7-4,3.7h-5.2v-3.2h5.2c0.5,0,0.8-0.1,0.8-0.4s-0.3-0.4-0.8-0.4H67z"/>
<path class="st0" d="M79,24.3h-3.2v-8.1H73v-3.2h8.9v3.2H79V24.3z"/>
<path class="st0" d="M87.1,24.3c-0.7,0-1.5-0.1-2.2-0.4c-0.7-0.3-1.3-0.7-1.8-1.2s-0.9-1.1-1.2-1.8c-0.3-0.7-0.4-1.4-0.4-2.2
	c0-0.9,0.2-1.8,0.7-2.7c0.4-0.8,1.1-1.5,1.8-2c0.8-0.5,1.7-0.8,2.6-0.9c0.9-0.1,1.9,0,2.7,0.4c0.9,0.4,1.6,0.9,2.2,1.6
	c0.6,0.7,1,1.6,1.2,2.5c0.2,0.9,0.1,1.9-0.1,2.7c-0.3,0.9-0.8,1.7-1.4,2.4c-0.5,0.5-1.1,1-1.8,1.2C88.6,24.2,87.9,24.4,87.1,24.3
	L87.1,24.3z M88.8,20.4c0.4-0.4,0.6-0.9,0.7-1.5c0.1-0.6-0.1-1.1-0.4-1.6c-0.3-0.5-0.8-0.8-1.3-1c-0.5-0.2-1.1-0.1-1.6,0.1
	c-0.5,0.2-0.9,0.6-1.2,1.1c-0.3,0.5-0.3,1.1-0.2,1.6c0.1,0.5,0.4,1,0.8,1.4c0.4,0.4,1,0.5,1.5,0.5c0.3,0,0.6-0.1,0.9-0.2
	C88.3,20.8,88.6,20.6,88.8,20.4L88.8,20.4z"/>
<path class="st0" d="M98.9,13.1h3.6v3.2h-3.6c-0.5,0-0.9,0.1-1.3,0.4c-0.4,0.3-0.7,0.6-0.9,1.1c-0.2,0.4-0.2,0.9-0.1,1.4
	c0.1,0.5,0.3,0.9,0.7,1.2c0.2,0.2,0.5,0.4,0.8,0.5c0.3,0.1,0.6,0.2,0.9,0.2h3.6v3.2h-3.6c-0.7,0-1.5-0.1-2.2-0.4
	c-0.7-0.3-1.3-0.7-1.8-1.2c-0.5-0.5-0.9-1.1-1.2-1.8c-0.3-0.7-0.4-1.4-0.4-2.2c0-1.5,0.6-2.9,1.7-4S97.4,13.1,98.9,13.1L98.9,13.1z"
	/>
<path class="st0" d="M106.8,19.5v4.8h-3.2V13.1h3.2v4.8l3.6-4.8h3.6l-4,5.6l4,5.6h-3.6L106.8,19.5z"/>
<path class="st1" d="M10.4,17.4v-2.3c0-0.4-0.1-0.8-0.2-1.1c-0.2-0.3-0.4-0.7-0.7-0.9l-1.2-0.9C8,12,7.5,12.2,7.5,12.5v6
	c0,0.4,0.1,0.8,0.2,1.1c0.2,0.3,0.4,0.7,0.7,0.9l1.2,0.9c0.3,0.2,0.8,0.1,0.8-0.3V17.4L10.4,17.4z"/>
<path class="st0" d="M12.5,0.2L9.4,3.6c0,0,0,0.1-0.1,0.1c0,0.1,0,0.1,0,0.2c0,0,0,0.1,0.1,0.1c0,0,0.1,0.1,0.1,0.1l1.7,0.4
	c0.1,0,0.1,0.1,0.1,0.1c0,0.1,0.1,0.1,0.1,0.2v14.5V23c0,0.4,0.1,0.8,0.2,1.1c0.1,0.3,0.4,0.7,0.6,0.9l1.2,0.9
	c0.3,0.2,0.8,0.1,0.8-0.3v-4.4V5.9c0-0.1,0-0.1,0-0.2c0-0.1,0.1-0.1,0.1-0.1c0,0,0.1-0.1,0.2-0.1c0.1,0,0.1,0,0.2,0l1.7,0.5
	c0.1,0,0.1,0,0.2,0c0.1,0,0.1-0.1,0.2-0.1c0.1-0.1,0.1-0.1,0.1-0.2c0-0.1,0-0.1,0-0.2l-3.7-5.4C13,0.1,13,0.1,13,0.1
	C12.9,0,12.8,0,12.8,0c-0.1,0-0.1,0-0.2,0C12.5,0.1,12.5,0.1,12.5,0.2L12.5,0.2z"/>
<path class="st2" d="M6.6,14.1v-2.5c0-0.4-0.1-0.8-0.2-1.1C6.3,10.1,6,9.8,5.8,9.5L4.5,8.6C4.3,8.4,3.8,8.6,3.8,8.9v5.7
	c0,0.4,0.1,0.8,0.2,1.1c0.2,0.3,0.4,0.7,0.7,0.9l1.2,0.9c0.3,0.2,0.8,0.1,0.8-0.3L6.6,14.1L6.6,14.1z"/>
<path class="st3" d="M2.9,14.2V8.7c0-0.4-0.1-0.8-0.2-1.1S2.3,6.9,2,6.7L0.8,5.8C0.5,5.5,0,5.7,0,6.1v13.2c0,0.4,0.1,0.8,0.2,1.1
	c0.2,0.3,0.4,0.7,0.7,0.9l1.2,0.9c0.3,0.2,0.8,0.1,0.8-0.3V14.2z"/>
</svg>
