<?xml version="1.0" encoding="utf-8"?>
<!-- Generator: Adobe Illustrator 26.3.0, SVG Export Plug-In . SVG Version: 6.00 Build 0)  -->
<svg version="1.1" id="레이어_1" xmlns="http://www.w3.org/2000/svg" xmlns:xlink="http://www.w3.org/1999/xlink" x="0px"
	 y="0px" viewBox="0 0 100 100" style="enable-background:new 0 0 100 100;" xml:space="preserve">
<style type="text/css">
	.st0{fill:#FFFFFF;}
	.st1{fill:#FF398A;}
	.st2{fill:#FF0357;}
	.st3{fill:#FF7BBD;}
	.st4{fill:#FFBBDF;}
</style>
<g>
	<path class="st0" d="M55.6,100H44.4C19.9,100,0,80.1,0,55.6V44.4C0,19.9,19.9,0,44.4,0h11.2C80.1,0,100,19.9,100,44.4v11.2
		C100,80.1,80.1,100,55.6,100z"/>
	<g>
		<path class="st1" d="M58.2,63.8v-2.5v-4.7c0-1.8-0.6-4.4-2.7-6.3l-3.8-2.8c-0.9-0.8-2.4-0.2-2.4,0.9v12.9v0.9v0.5v4.3
			c0,1.8,0.6,4.4,2.7,6.3l3.8,2.8c0.9,0.8,2.4,0.2,2.4-0.9V64.3V63.8z"/>
		<path class="st2" d="M64.7,10.1l-9.6,10.6c-0.4,0.6-0.2,1.3,0.5,1.6l5.2,1.2c0.4,0.2,0.6,0.6,0.6,1v45.1l0,0V81
			c0,1.8,0.6,4.4,2.7,6.3l3.7,2.8c0.9,0.8,2.4,0.2,2.4-0.9V75.6l0,0V27.9c0-0.8,0.8-1.3,1.6-1l5.2,1.6c1,0.4,1.9-0.6,1.4-1.5
			L66.6,10.2C66.2,9.5,65.1,9.4,64.7,10.1z"/>
		<path class="st3" d="M46.5,53.3v-2.5v-5.4c0-1.8-0.6-4.4-2.7-6.3L40,36.4c-0.9-0.8-2.4-0.2-2.4,0.9v13.6v0.9v0.5v2.9
			c0,1.8,0.6,4.4,2.7,6.3l3.8,2.8c0.9,0.8,2.4,0.2,2.4-0.9v-9.5V53.3z"/>
		<path class="st4" d="M34.8,53.6v-2.5V36.7c0-1.8-0.6-4.4-2.7-6.3l-3.8-2.8c-0.9-0.8-2.4-0.2-2.4,0.9v22.7V52v0.5v17
			c0,1.8,0.6,4.4,2.7,6.3l3.8,2.8c0.9,0.8,2.4,0.2,2.4-0.9V54.1V53.6z"/>
	</g>
	<path class="st0" d="M55.6,100H44.4C19.9,100,0,80.1,0,55.6V44.4C0,19.9,19.9,0,44.4,0h11.2C80.1,0,100,19.9,100,44.4v11.2
		C100,80.1,80.1,100,55.6,100z"/>
	<g>
		<path class="st1" d="M58.2,63.8v-2.5v-4.7c0-1.8-0.6-4.4-2.7-6.3l-3.8-2.8c-0.9-0.8-2.4-0.2-2.4,0.9v12.9v0.9v0.5v4.3
			c0,1.8,0.6,4.4,2.7,6.3l3.8,2.8c0.9,0.8,2.4,0.2,2.4-0.9V64.3V63.8z"/>
		<path class="st2" d="M64.7,10.1l-9.6,10.6c-0.4,0.6-0.2,1.3,0.5,1.6l5.2,1.2c0.4,0.2,0.6,0.6,0.6,1v45.1l0,0V81
			c0,1.8,0.6,4.4,2.7,6.3l3.7,2.8c0.9,0.8,2.4,0.2,2.4-0.9V75.6l0,0V27.9c0-0.8,0.8-1.3,1.6-1l5.2,1.6c1,0.4,1.9-0.6,1.4-1.5
			L66.6,10.2C66.2,9.5,65.1,9.4,64.7,10.1z"/>
		<path class="st3" d="M46.5,53.3v-2.5v-5.4c0-1.8-0.6-4.4-2.7-6.3L40,36.4c-0.9-0.8-2.4-0.2-2.4,0.9v13.6v0.9v0.5v2.9
			c0,1.8,0.6,4.4,2.7,6.3l3.8,2.8c0.9,0.8,2.4,0.2,2.4-0.9v-9.5V53.3z"/>
		<path class="st4" d="M34.8,53.6v-2.5V36.7c0-1.8-0.6-4.4-2.7-6.3l-3.8-2.8c-0.9-0.8-2.4-0.2-2.4,0.9v22.7V52v0.5v17
			c0,1.8,0.6,4.4,2.7,6.3l3.8,2.8c0.9,0.8,2.4,0.2,2.4-0.9V54.1V53.6z"/>
	</g>
</g>
</svg>
