<svg xmlns="http://www.w3.org/2000/svg" width="24" height="24" viewBox="0 0 24 24">
    <g data-name="그룹 398">
        <path d="M7.581 24.972A1.621 1.621 0 0 1 6 23.391V7.581A1.621 1.621 0 0 1 7.581 6h15.81a1.621 1.621 0 0 1 1.581 1.581v2.372h-1.581V7.581H7.581v15.81h15.81V21.02h1.581v2.372a1.621 1.621 0 0 1-1.581 1.581zM21.1 20.387l-1.107-1.107 2.978-3H12.93V14.7h10.04l-2.978-3 1.108-1.115 4.9 4.9z" transform="translate(-4 -3)" style="fill:#2b2b2b"/>
        <path data-name="사각형 219" style="fill:none" d="M0 0h24v24H0z"/>
    </g>
</svg>
