<svg xmlns="http://www.w3.org/2000/svg" width="18" height="18" viewBox="0 0 18 18">
    <g data-name="그룹 287">
        <path d="M7.586 16a1.766 1.766 0 0 1-1.231-.458 1.452 1.452 0 0 1-.5-1.117V12.55h2.1V4l.992.9.986-.9.975.9.992-.9.992.9.992-.9.992.9.992-.9.992.9.99-.9v10.425a1.452 1.452 0 0 1-.5 1.117 1.766 1.766 0 0 1-1.236.458zm8.529-.9a.769.769 0 0 0 .537-.187.628.628 0 0 0 .207-.488V5.5H8.941v7.05h6.43v1.875a.628.628 0 0 0 .207.488.769.769 0 0 0 .536.187zm-6.3-7.23v-.9h3.967v.9zm0 2.01v-.9h3.967v.9zm5.5-2.01a.5.5 0 0 1-.347-.135.408.408 0 0 1 0-.63.514.514 0 0 1 .694 0 .408.408 0 0 1 0 .63.5.5 0 0 1-.347.135zm0 1.935a.5.5 0 0 1-.347-.135.408.408 0 0 1 0-.63.514.514 0 0 1 .694 0 .408.408 0 0 1 0 .63.5.5 0 0 1-.341.135zM7.569 15.1h6.81v-1.65H6.842v.975a.628.628 0 0 0 .207.488.745.745 0 0 0 .52.187zm-.727 0z" transform="translate(-2.85 -1)" style="fill:#ffebee"/>
        <path data-name="사각형 169" style="fill:none" d="M0 0h18v18H0z"/>
    </g>
</svg>
