<svg xmlns="http://www.w3.org/2000/svg" width="102.165" height="96.438" viewBox="0 0 102.165 96.438">
    <defs>
        <clipPath id="4gurh7t4na">
            <path data-name="사각형 117" style="fill:none" d="M0 0h102.165v96.438H0z"/>
        </clipPath>
    </defs>
    <g data-name="그룹 226" style="opacity:.5">
        <g data-name="그룹 225" style="clip-path:url(#4gurh7t4na)">
            <path data-name="패스 57" d="M116.681 87.013a1.22 1.22 0 0 1-.79-.29 10.552 10.552 0 0 1-2.563-3.545 16.518 16.518 0 0 1-6.125 0 1.221 1.221 0 1 1 .466-2.4 14.182 14.182 0 0 0 4.785.07c-.988-3.422-.888-7.25.965-9.434a4.278 4.278 0 0 1 4.188-1.4 5.374 5.374 0 0 1 4.034 3.506c.388 1.17.67 3.542-1.82 6.284a10.529 10.529 0 0 1-4.1 2.71 7.736 7.736 0 0 0 1.757 2.349 1.221 1.221 0 0 1-.791 2.152m0-14.648a1.776 1.776 0 0 0-1.4.629c-1.313 1.546-1.279 4.552-.473 7.246a8.1 8.1 0 0 0 3.2-2.08c1.243-1.37 1.7-2.71 1.31-3.872a2.933 2.933 0 0 0-2.181-1.878 2.409 2.409 0 0 0-.458-.045" transform="translate(-19.729 -12.988)" style="fill:#696b6b"/>
            <path data-name="패스 58" d="m74.1 71.664-6.989 6.1 1.626 6.373c-3.183 1.611-9.224 5.788-9.224 5.788l8.946 2.827 1.634 7.968 5.117 2.527 4.09-11.509c14.025-2.62 17.571-10.926 18.457-13.07 4.4-10.65-.37-24.317-16.447-32.881l1.94 6.393-8.573 7.039z" transform="translate(-11.055 -8.505)" style="fill:#cecece"/>
            <path data-name="패스 59" d="M74.833 103.32a1.225 1.225 0 0 1-.541-.126l-5.392-2.665a1.218 1.218 0 0 1-.673-.958l-.879-7.777a41.123 41.123 0 0 1-9.891-2.625 1.221 1.221 0 0 1-.167-2.184l9.274-5.5-1.624-4.8a1.221 1.221 0 0 1 .419-1.366l7.154-5.419.243-12.8a1.222 1.222 0 0 1 .461-.932l7.652-6.089-2.748-11.526a1.22 1.22 0 0 1 1.729-1.378c17.179 8.484 25.528 26.783 18.61 40.789a21.991 21.991 0 0 1-3.348 5.071 30.2 30.2 0 0 1-16.242 8.7l-2.856 10.678a1.223 1.223 0 0 1-1.18.905m-4.256-4.686 3.461 1.71 2.675-10a1.22 1.22 0 0 1 1-.891A27.671 27.671 0 0 0 93.3 81.39a19.661 19.661 0 0 0 2.965-4.508c6-12.151-.774-27.937-15.143-36.254l2.3 9.636A1.22 1.22 0 0 1 83 51.5l-7.81 6.214-.243 12.825a1.221 1.221 0 0 1-.483.95l-6.928 5.249 1.659 4.9a1.22 1.22 0 0 1-.535 1.442l-7.912 4.692a38.208 38.208 0 0 0 7.837 1.709 1.221 1.221 0 0 1 1.081 1.076z" transform="translate(-10.53 -6.882)" style="fill:#696b6b"/>
            <path data-name="패스 60" d="M26.847 37.066c-2.04 1.754-5.738 4.3-7.2 6.016l-8.561 1 4.055 6.718a29.7 29.7 0 0 0-2.164 12.974c.2 2.475-.566 5.342-2.062 6.245-2.443 1.475-3.18.254-4.771.381-2.812.225-4.057 1.688-2.887 3.832l4.755 7.541 3.791-.623c1.452-.386 3.1-3.538 3.1-3.538l1.418-.023c4.293 3.844 9.879 5.525 16.166 6.07l3.761 11.063 5.439-3.285-.287-7.873a31.793 31.793 0 0 0 10.65-3.384l-8.55-6.033.851-14.747-13.983-7.052 2.884-13.632z" transform="translate(-.524 -6.885)" style="fill:#cecece"/>
            <path data-name="패스 61" d="M56.32 80.07a1.213 1.213 0 0 1-.62-.17l-9.068-5.358a1.222 1.222 0 0 1-.594-1.185l1.576-14.33-13.575-6.8a1.221 1.221 0 0 1-.639-1.377l2.923-12-10.347-3.6a1.221 1.221 0 0 1 .8-2.308l11.4 3.962a1.223 1.223 0 0 1 .786 1.444L36 50.483l13.465 6.74a1.222 1.222 0 0 1 .667 1.226l-1.579 14.392 8.39 4.957a1.221 1.221 0 0 1-.622 2.273" transform="translate(-4.673 -6.107)" style="fill:#696b6b"/>
            <path data-name="패스 62" d="M19.536 62.613a1.342 1.342 0 1 0 1.843.455 1.343 1.343 0 0 0-1.843-.455" transform="translate(-3.508 -11.595)" style="fill:#696b6b"/>
            <path data-name="패스 63" d="M35.911 95.422a1.221 1.221 0 0 1-1.149-.807l-3.747-10.4a27.967 27.967 0 0 1-15.633-6.195l-.56.338a5.5 5.5 0 0 1-9.975 1.264L.79 72.909a5.5 5.5 0 0 1 6.69-7.972 27.775 27.775 0 0 1 1.4-15.71L2.191 40a1.222 1.222 0 0 1 .963-1.938l12.763-.274a41.169 41.169 0 0 1 4.811-4.56 1.221 1.221 0 0 1 1.532 1.9A38.6 38.6 0 0 0 17.4 39.8a1.231 1.231 0 0 1-.895.418l-10.969.232 5.708 7.883a1.221 1.221 0 0 1 .145 1.17 25.288 25.288 0 0 0-1.331 15.72 1.222 1.222 0 0 1-.552 1.349l-1.311.792a1.219 1.219 0 0 1-1.219.024 3.057 3.057 0 0 0-4.094 4.258l4.057 6.718a3.055 3.055 0 0 0 5.619-1.013 1.223 1.223 0 0 1 .569-.818l1.755-1.06a1.222 1.222 0 0 1 1.451.14 25.535 25.535 0 0 0 15.647 6.233 1.221 1.221 0 0 1 1.066.8l3.509 9.736 3.039-1.835.228-8.122a1.221 1.221 0 0 1 .987-1.165A40.888 40.888 0 0 0 51.1 77.773a1.221 1.221 0 0 1 1.1 2.181 43.34 43.34 0 0 1-9.963 3.509l-.22 7.822a1.22 1.22 0 0 1-.59 1.011l-4.885 2.95a1.216 1.216 0 0 1-.631.176" transform="translate(0 -6.121)" style="fill:#696b6b"/>
            <path data-name="패스 64" d="m32.246 1.5-6.535 12.283 14.811 6.045L39.9 5.786z" transform="translate(-4.776 -.278)" style="fill:#cecece"/>
            <path data-name="패스 65" d="M47.243 20.771a1.226 1.226 0 0 1-.461-.09l-14.811-6.046a1.22 1.22 0 0 1-.617-1.7L37.889.648a1.219 1.219 0 0 1 1.675-.492l7.651 4.286a1.22 1.22 0 0 1 .622 1.011l.626 14.047a1.219 1.219 0 0 1-1.22 1.275m-13.1-7.887L45.938 17.7l-.51-11.457L39.459 2.9z" transform="translate(-5.797)" style="fill:#696b6b"/>
            <path data-name="패스 66" d="M73.241 42.253a1.221 1.221 0 0 1-1.113-1.725l3.816-8.435-7.988-2.842a1.221 1.221 0 1 1 .819-2.3l9.238 3.285a1.222 1.222 0 0 1 .7 1.654l-4.362 9.645a1.221 1.221 0 0 1-1.113.718" transform="translate(-12.472 -4.993)" style="fill:#696b6b"/>
            <path data-name="패스 67" d="m62.18 37.941-11.772-1.52-2.293 10.122z" transform="translate(-8.937 -6.765)" style="fill:#4f4f4f"/>
            <path data-name="패스 68" d="m64.92 53.418-6.271 6.6 10.97 5.9z" transform="translate(-10.894 -9.922)" style="fill:#4f4f4f"/>
            <path data-name="패스 69" d="M98.189 31.384a3.644 3.644 0 0 1-.72-.072 1.221 1.221 0 0 1-.755-.488l-8.142-11.4a1.222 1.222 0 0 1 .822-1.919l11.4-1.628a1.223 1.223 0 0 1 .778.149c3.075 1.757 4.047 5.605 2.475 9.8-1.045 2.79-3.268 5.554-5.858 5.554m-6.462-11.74 6.63 9.282c1.143-.176 2.611-1.838 3.4-3.948.855-2.283.991-5.157-1.066-6.613z" transform="translate(-16.41 -2.947)" style="fill:#696b6b"/>
        </g>
    </g>
</svg>
