<svg xmlns="http://www.w3.org/2000/svg" width="24" height="24" viewBox="0 0 24 24">
  <defs>
    <style>
      .cls-1 {
        fill: #2b2b2b;
      }

      .cls-2 {
        fill: none;
      }
    </style>
  </defs>
  <g id="그룹_397" data-name="그룹 397" transform="translate(-20 -533)">
    <path id="thumb_up_FILL0_wght400_GRAD0_opsz48" class="cls-1" d="M19.153,22H8.556V9.2L15.191,2l.931.775a.756.756,0,0,1,.215.35,1.832,1.832,0,0,1,.072.55v.25L15.334,9.2H22.47a1.345,1.345,0,0,1,1,.45,1.473,1.473,0,0,1,.43,1.05v2.05a1.932,1.932,0,0,0,.036.363.627.627,0,0,1-.036.363L20.9,20.725a2.153,2.153,0,0,1-.7.9A1.678,1.678,0,0,1,19.153,22ZM9.988,20.5h9.475l3.007-7.475V10.7h-8.9l1.265-6.225L9.988,9.825Zm0-10.675v0ZM8.556,9.2v1.5H5.382v9.8H8.556V22H3.95V9.2Z" transform="translate(18.05 533)"/>
    <rect id="사각형_218" data-name="사각형 218" class="cls-2" width="24" height="24" transform="translate(20 533)"/>
  </g>
</svg>
