<?xml version="1.0" encoding="utf-8"?>
<!-- Generator: Adobe Illustrator 26.3.0, SVG Export Plug-In . SVG Version: 6.00 Build 0)  -->
<svg version="1.1" id="레이어_1" xmlns="http://www.w3.org/2000/svg" xmlns:xlink="http://www.w3.org/1999/xlink" x="0px"
	 y="0px" viewBox="0 0 100 100" style="enable-background:new 0 0 100 100;" xml:space="preserve">
<style type="text/css">
	.st0{fill:#FFFFFF;}
	.st1{fill:#FF398A;}
	.st2{fill:#FF0357;}
	.st3{fill:#FF7BBD;}
	.st4{fill:#FFBBDF;}
	.st5{fill:#FF004C;}
	.st6{opacity:0.5;fill:#75002D;}
	.st7{fill:url(#SVGID_1_);}
	.st8{fill:url(#SVGID_00000078766792418008775080000003249647672603405728_);}
	.st9{fill:#3F3737;}
	.st10{fill:url(#SVGID_00000068661048578295056730000007507469254805127836_);}
	.st11{fill:url(#SVGID_00000181779535561344997850000015731564671594514869_);}
</style>
<path class="st0" d="M384.3,154.2H265c-24.5,0-44.4-19.9-44.4-44.4V-9.4c0-24.5,19.9-44.4,44.4-44.4h119.2
	c24.5,0,44.4,19.9,44.4,44.4v119.2C428.6,134.3,408.8,154.2,384.3,154.2z"/>
<g>
	<path class="st1" d="M341.8,78.9v-5.1v-9.7c0-3.8-1.2-9.2-5.7-13l-7.8-5.8c-1.9-1.6-5.1-0.4-5.1,1.8v26.7v1.8v1.1v8.9
		c0,3.8,1.2,9.2,5.7,13l7.8,5.8c1.9,1.6,5.1,0.4,5.1-1.8V80V78.9z"/>
	<path class="st2" d="M355.1-32.8l-19.9,22c-0.8,1.2-0.3,2.7,0.9,3.3l10.7,2.5c0.8,0.4,1.3,1.2,1.3,2.1v93.7l0,0v23.7
		c0,3.8,1.2,9.2,5.6,13l7.7,5.8c1.8,1.6,5,0.4,5-1.8v-28.2l0,0V4.2c0-1.7,1.7-2.8,3.2-2.1l10.8,3.3c2,0.9,4-1.2,3-3.2l-24.2-34.8
		C358.3-34.1,356.1-34.3,355.1-32.8z"/>
	<path class="st3" d="M317.4,57v-5.1V40.7c0-3.8-1.2-9.2-5.7-13l-7.8-5.8c-1.9-1.6-5.1-0.4-5.1,1.8v28.2v1.8v1.1v6
		c0,3.8,1.2,9.2,5.7,13l7.8,5.8c1.9,1.6,5.1,0.4,5.1-1.8V58.1V57z"/>
	<path class="st4" d="M293,57.7v-5.1V22.4c0-3.8-1.2-9.2-5.7-13l-7.8-5.8c-1.9-1.6-5.1-0.4-5.1,1.8v47.2v1.8v1.1v35.3
		c0,3.8,1.2,9.2,5.7,13l7.8,5.8c1.9,1.6,5.1,0.4,5.1-1.8V58.8V57.7z"/>
</g>
<g>
	<path class="st0" d="M55.6,100H44.4C19.9,100,0,80.1,0,55.6V44.4C0,19.9,19.9,0,44.4,0h11.2C80.1,0,100,19.9,100,44.4v11.2
		C100,80.1,80.1,100,55.6,100z"/>
	<g>
		<g>
			<path class="st5" d="M52.9,23.4c12.8,2.2,17,9.7,18.9,18.6c5.9-4.5,12.2-9,13-25.6C84.8,16.3,77.8,21.1,52.9,23.4z"/>
		</g>
		<path class="st6" d="M52.9,23.4c12.8,2.2,17,9.7,18.9,18.6C72,32.9,68.2,24,52.9,23.4z"/>
		<linearGradient id="SVGID_1_" gradientUnits="userSpaceOnUse" x1="40.8976" y1="24.7928" x2="40.8976" y2="55.6686">
			<stop  offset="0" style="stop-color:#383838"/>
			<stop  offset="1" style="stop-color:#000000"/>
		</linearGradient>
		<path class="st7" d="M46.5,61.3c5.1-7.3,13.6-12.1,23.2-12.2v-0.8c0-11.2-6.6-23.4-22.4-23.4H12.1v0c0,12.8,10.4,23.2,23.2,23.2
			h11.2V61.3z"/>
		
			<linearGradient id="SVGID_00000035519864128088895490000008160586800591480244_" gradientUnits="userSpaceOnUse" x1="63.871" y1="49.6455" x2="53.1166" y2="78.8712">
			<stop  offset="0" style="stop-color:#2E2E2E"/>
			<stop  offset="1" style="stop-color:#141414"/>
		</linearGradient>
		<path style="fill:url(#SVGID_00000035519864128088895490000008160586800591480244_);" d="M46.5,61.3v27.2h0
			c12.8,0,23.2-10.4,23.2-23.2V49.1C60.1,49.2,51.6,54,46.5,61.3z"/>
		<path class="st9" d="M69.2,49.1c-9.4,0.2-17.7,5-22.7,12.2v2.3C51.5,56.4,59.8,49.5,69.2,49.1z"/>
	</g>
	<path class="st0" d="M55.6,100H44.4C19.9,100,0,80.1,0,55.6V44.4C0,19.9,19.9,0,44.4,0h11.2C80.1,0,100,19.9,100,44.4v11.2
		C100,80.1,80.1,100,55.6,100z"/>
	<g>
		<g>
			<path class="st5" d="M52.9,23.4c12.8,2.2,17,9.7,18.9,18.6c5.9-4.5,12.2-9,13-25.6C84.8,16.3,77.8,21.1,52.9,23.4z"/>
		</g>
		<path class="st6" d="M52.9,23.4c12.8,2.2,17,9.7,18.9,18.6C72,32.9,68.2,24,52.9,23.4z"/>
		
			<linearGradient id="SVGID_00000059997106579498254940000003479351466054704788_" gradientUnits="userSpaceOnUse" x1="40.8976" y1="24.7928" x2="40.8976" y2="55.6686">
			<stop  offset="0" style="stop-color:#383838"/>
			<stop  offset="1" style="stop-color:#000000"/>
		</linearGradient>
		<path style="fill:url(#SVGID_00000059997106579498254940000003479351466054704788_);" d="M46.5,61.3c5.1-7.3,13.6-12.1,23.2-12.2
			v-0.8c0-11.2-6.6-23.4-22.4-23.4H12.1v0c0,12.8,10.4,23.2,23.2,23.2h11.2V61.3z"/>
		
			<linearGradient id="SVGID_00000053536244198308363050000011037586803783579563_" gradientUnits="userSpaceOnUse" x1="63.871" y1="49.6455" x2="53.1166" y2="78.8712">
			<stop  offset="0" style="stop-color:#2E2E2E"/>
			<stop  offset="1" style="stop-color:#141414"/>
		</linearGradient>
		<path style="fill:url(#SVGID_00000053536244198308363050000011037586803783579563_);" d="M46.5,61.3v27.2h0
			c12.8,0,23.2-10.4,23.2-23.2V49.1C60.1,49.2,51.6,54,46.5,61.3z"/>
		<path class="st9" d="M69.2,49.1c-9.4,0.2-17.7,5-22.7,12.2v2.3C51.5,56.4,59.8,49.5,69.2,49.1z"/>
	</g>
</g>
<path class="st0" d="M384.3,154.2H265c-24.5,0-44.4-19.9-44.4-44.4V-9.4c0-24.5,19.9-44.4,44.4-44.4h119.2
	c24.5,0,44.4,19.9,44.4,44.4v119.2C428.6,134.3,408.8,154.2,384.3,154.2z"/>
<g>
	<path class="st1" d="M341.8,78.9v-5.1v-9.7c0-3.8-1.2-9.2-5.7-13l-7.8-5.8c-1.9-1.6-5.1-0.4-5.1,1.8v26.7v1.8v1.1v8.9
		c0,3.8,1.2,9.2,5.7,13l7.8,5.8c1.9,1.6,5.1,0.4,5.1-1.8V80V78.9z"/>
	<path class="st2" d="M355.1-32.8l-19.9,22c-0.8,1.2-0.3,2.7,0.9,3.3l10.7,2.5c0.8,0.4,1.3,1.2,1.3,2.1v93.7l0,0v23.7
		c0,3.8,1.2,9.2,5.6,13l7.7,5.8c1.8,1.6,5,0.4,5-1.8v-28.2l0,0V4.2c0-1.7,1.7-2.8,3.2-2.1l10.8,3.3c2,0.9,4-1.2,3-3.2l-24.2-34.8
		C358.3-34.1,356.1-34.3,355.1-32.8z"/>
	<path class="st3" d="M317.4,57v-5.1V40.7c0-3.8-1.2-9.2-5.7-13l-7.8-5.8c-1.9-1.6-5.1-0.4-5.1,1.8v28.2v1.8v1.1v6
		c0,3.8,1.2,9.2,5.7,13l7.8,5.8c1.9,1.6,5.1,0.4,5.1-1.8V58.1V57z"/>
	<path class="st4" d="M293,57.7v-5.1V22.4c0-3.8-1.2-9.2-5.7-13l-7.8-5.8c-1.9-1.6-5.1-0.4-5.1,1.8v47.2v1.8v1.1v35.3
		c0,3.8,1.2,9.2,5.7,13l7.8,5.8c1.9,1.6,5.1,0.4,5.1-1.8V58.8V57.7z"/>
</g>
</svg>
