<svg xmlns="http://www.w3.org/2000/svg" width="88" height="88" viewBox="0 0 88 88">
    <defs>
        <clipPath id="ypup289t8a">
            <path data-name="사각형 173" style="fill:none" d="M0 0h44.325v35.353H0z"/>
        </clipPath>
    </defs>
    <g data-name="그룹 301" transform="translate(-110 -576)">
        <rect data-name="사각형 170" width="88" height="88" rx="12" transform="translate(110 576)" style="fill:#fff"/>
        <g data-name="그룹 293">
            <g data-name="그룹 292" transform="translate(131.838 602.323)" style="clip-path:url(#ypup289t8a)">
                <path data-name="패스 84" d="M20.4 36.713v3.926a.57.57 0 0 1-.607.592l-6.258-.723a.57.57 0 0 0-.607.592v2.511a.569.569 0 0 1-.617.591l-4.351-.553a.581.581 0 0 1-.487-.591V40.39a.58.58 0 0 0-.5-.592L.5 39.086a.58.58 0 0 1-.5-.592v-3.422a.571.571 0 0 1 .6-.593l19.3 1.64a.579.579 0 0 1 .509.593m0-17.07v3.346a.574.574 0 0 1-.565.595L.54 23.141a.576.576 0 0 1-.54-.6v-2.924a.574.574 0 0 1 .553-.6l19.3.026a.575.575 0 0 1 .551.6m0 11.369v3.344a.571.571 0 0 1-.592.593l-19.3-1.513A.579.579 0 0 1 0 32.842V24.9a.573.573 0 0 1 .568-.6l19.3.57a.577.577 0 0 1 .537.595v3.057a.573.573 0 0 1-.579.595l-13.791-.678a.6.6 0 0 0-.055 1.189l13.9.789a.578.578 0 0 1 .523.595" transform="translate(0 -12.552)" style="fill:#d94345"/>
                <path data-name="패스 85" d="m64.564 32.911 13.07-.9c.2-.03.252-.218.252-.44v-4.44c0-.266-.138-.472-.383-.441l-7.627.331a.421.421 0 0 1-.467-.441v-2a.469.469 0 0 1 .447-.444l7.683-.21c.223-.006.347-.2.347-.444v-4.023c0-.246-.108-.445-.336-.444l-13.083.07c-.227 0-.319.2-.319.444v12.942c0 .269.169.476.416.44" transform="translate(-42.331 -12.548)" style="fill:#d94345"/>
                <path data-name="패스 86" d="m84.21 58.847-19.745 1.339c-.217.015-.316.208-.316.443v3.208c0 .259.153.463.392.442l13.794-1.171a.416.416 0 0 1 .431.442.438.438 0 0 1-.385.442l-13.9 1.238a.4.4 0 0 0-.329.442v8.068c0 .266.163.472.407.441l19.753-2.493c.207-.026.3-.216.3-.441v-3a.4.4 0 0 0-.416-.442l-13.774 1.5a.4.4 0 0 1-.425-.442v-.03a.425.425 0 0 1 .363-.442l13.92-1.459a.4.4 0 0 0 .33-.442v-7.2a.4.4 0 0 0-.4-.443" transform="translate(-42.331 -38.832)" style="fill:#d94345"/>
                <path data-name="패스 87" d="m111.882 9.43-1.115.02a.476.476 0 0 1-.475-.444V5.643c0-.238.264-.665.5-.665h.941a.434.434 0 0 0 .336-.749l-4.095-4.1a.472.472 0 0 0-.672.017l-4.095 4.07a.44.44 0 0 0 .336.758h.939c.236 0 .548.427.548.665V19c0 .255.139.458.376.443l4.566-.295c.217-.014.32-.208.32-.443v-3.05a.463.463 0 0 1 .432-.444l1.165-.051a.479.479 0 0 0 .45-.444V9.874a.459.459 0 0 0-.456-.444" transform="translate(-68.013)" style="fill:#d94345"/>
            </g>
        </g>
    </g>
</svg>
