<svg data-name="그룹 270" xmlns="http://www.w3.org/2000/svg" width="90.509" height="24.928" viewBox="0 0 90.509 24.928">
    <defs>
        <clipPath id="o1vha927ca">
            <path data-name="사각형 146" style="fill:#fff" d="M0 0h90.509v24.928H0z"/>
        </clipPath>
    </defs>
    <g data-name="그룹 269" style="clip-path:url(#o1vha927ca)">
        <g data-name="그룹 268">
            <g data-name="그룹 267" style="clip-path:url(#o1vha927ca)">
                <path data-name="패스 77" d="M174.505 74.015v11.247h-2.184V74.015h-1.274a2.292 2.292 0 0 0-.673.081.929.929 0 0 0-.4.233.739.739 0 0 0-.191.358 2.112 2.112 0 0 0-.046.457l-1.474-.728a4.168 4.168 0 0 1 .082-.837 1.858 1.858 0 0 1 .309-.719 1.565 1.565 0 0 1 .655-.51 2.825 2.825 0 0 1 1.137-.191h8.116v1.856z" transform="translate(-143.959 -61.736)" style="fill:#fff"/>
                <path data-name="패스 78" d="M228.541 107.144v-1.674a3.209 3.209 0 0 1-1.283 1.447 3.76 3.76 0 0 1-1.9.464 3.074 3.074 0 0 1-3.294-3.294v-6.352h1.984v5.551a4.087 4.087 0 0 0 .109.974 2.2 2.2 0 0 0 .355.783 1.676 1.676 0 0 0 .646.528 2.225 2.225 0 0 0 .965.191 2.3 2.3 0 0 0 1.074-.237 2.2 2.2 0 0 0 .755-.637 2.758 2.758 0 0 0 .446-.919 3.985 3.985 0 0 0 .146-1.083v-5.15h1.984v9.409z" transform="translate(-189.987 -83.618)" style="fill:#fff"/>
                <path data-name="패스 79" d="M299.811 85.262v-1.11a3.634 3.634 0 0 1-1.3.992 4.169 4.169 0 0 1-1.756.355 4.788 4.788 0 0 1-1.893-.364 4.3 4.3 0 0 1-1.465-1.01 4.567 4.567 0 0 1-.946-1.529 5.335 5.335 0 0 1-.337-1.92 5.89 5.89 0 0 1 .328-1.993 4.705 4.705 0 0 1 .946-1.6 4.328 4.328 0 0 1 1.492-1.065 4.855 4.855 0 0 1 1.966-.382 4.443 4.443 0 0 1 1.665.309 3.372 3.372 0 0 1 1.3.91v-4.7h1.984v13.1zm0-6.187a1.325 1.325 0 0 0-.255-.792 2.442 2.442 0 0 0-.637-.61 3.341 3.341 0 0 0-.837-.4 2.814 2.814 0 0 0-.855-.146 3.3 3.3 0 0 0-1.465.291 2.666 2.666 0 0 0-.964.783 3.132 3.132 0 0 0-.537 1.128 5.316 5.316 0 0 0-.164 1.328 4.656 4.656 0 0 0 .182 1.343 2.918 2.918 0 0 0 .555 1.055 2.57 2.57 0 0 0 .946.7 3.266 3.266 0 0 0 1.338.255 3.348 3.348 0 0 0 .974-.146 2.7 2.7 0 0 0 .864-.437 2.351 2.351 0 0 0 .619-.7 1.841 1.841 0 0 0 .237-.937z" transform="translate(-249.92 -61.736)" style="fill:#fff"/>
                <path data-name="패스 80" d="M378.3 105.851v-1.11a3.635 3.635 0 0 1-1.3.992 4.169 4.169 0 0 1-1.756.355 4.789 4.789 0 0 1-1.893-.364 4.3 4.3 0 0 1-1.465-1.01 4.569 4.569 0 0 1-.946-1.529 5.339 5.339 0 0 1-.337-1.92 5.894 5.894 0 0 1 .328-1.993 4.707 4.707 0 0 1 .946-1.6 4.328 4.328 0 0 1 1.492-1.065 4.856 4.856 0 0 1 1.966-.382 4.443 4.443 0 0 1 1.665.309 3.373 3.373 0 0 1 1.3.91v-1h1.984v9.408zm0-6.187a1.325 1.325 0 0 0-.255-.792 2.443 2.443 0 0 0-.637-.61 3.343 3.343 0 0 0-.837-.4 2.814 2.814 0 0 0-.855-.146 3.3 3.3 0 0 0-1.465.291 2.666 2.666 0 0 0-.965.783 3.136 3.136 0 0 0-.537 1.128 5.314 5.314 0 0 0-.164 1.328 4.659 4.659 0 0 0 .182 1.338 2.922 2.922 0 0 0 .555 1.055 2.571 2.571 0 0 0 .946.7 3.266 3.266 0 0 0 1.338.255 3.348 3.348 0 0 0 .974-.146 2.7 2.7 0 0 0 .864-.437 2.352 2.352 0 0 0 .619-.7 1.841 1.841 0 0 0 .237-.937z" transform="translate(-317.074 -82.325)" style="fill:#fff"/>
                <path data-name="사각형 144" transform="translate(65.177 10.423)" style="fill:#fff" d="M0 0h1.984v13.103H0z"/>
                <path data-name="패스 81" d="M486.421 84.479a4.676 4.676 0 0 1-3.349 1.092 4.611 4.611 0 0 1-3.376-1.11 4.42 4.42 0 0 1-1.119-3.276v-9.026h3.094v8.717a6.883 6.883 0 0 0 .046.783 2.453 2.453 0 0 0 .191.728 1.434 1.434 0 0 0 .418.546 1.384 1.384 0 0 0 1.492 0 1.436 1.436 0 0 0 .419-.546 2.472 2.472 0 0 0 .191-.728 6.969 6.969 0 0 0 .046-.783v-8.717h3.094v9.008a4.373 4.373 0 0 1-1.146 3.312" transform="translate(-409.451 -61.736)" style="fill:#fff"/>
                <path data-name="패스 82" d="M560.215 79.469a3.816 3.816 0 0 1-.491 2 3.928 3.928 0 0 1-1.283 1.317 5.692 5.692 0 0 1-1.784.727 9.009 9.009 0 0 1-2.011.227 8.821 8.821 0 0 1-1.055-.073 6.648 6.648 0 0 1-1.228-.275 6.97 6.97 0 0 1-1.228-.532 4.024 4.024 0 0 1-1.075-.86 4.243 4.243 0 0 1-.764-1.26 4.592 4.592 0 0 1-.291-1.711h3.095a2.185 2.185 0 0 0 .773 1.893 3.362 3.362 0 0 0 2.029.564 3.413 3.413 0 0 0 .773-.091 2.3 2.3 0 0 0 .71-.291 1.656 1.656 0 0 0 .528-.536 1.5 1.5 0 0 0 .209-.808 1.167 1.167 0 0 0-.2-.708 1.692 1.692 0 0 0-.61-.482 5.729 5.729 0 0 0-1.01-.382q-.6-.172-1.42-.39-.783-.218-1.565-.454a5.862 5.862 0 0 1-1.41-.627 3.264 3.264 0 0 1-1.028-1.008 2.892 2.892 0 0 1-.4-1.6 3.627 3.627 0 0 1 1.565-3.134 4.8 4.8 0 0 1 1.62-.727 7.637 7.637 0 0 1 1.856-.227 8.384 8.384 0 0 1 1.956.22 4.654 4.654 0 0 1 1.629.725 3.808 3.808 0 0 1 1.146 1.309 4.533 4.533 0 0 1 .492 1.969h-2.948a1.622 1.622 0 0 0-.673-1.511 2.212 2.212 0 0 0-.755-.346 3.482 3.482 0 0 0-.864-.109 4.174 4.174 0 0 0-.7.064 2.262 2.262 0 0 0-.682.227 1.445 1.445 0 0 0-.51.445 1.175 1.175 0 0 0-.2.7 1.05 1.05 0 0 0 .364.79 2.947 2.947 0 0 0 .9.509 10.047 10.047 0 0 0 1.256.373q.7.164 1.429.345a14.787 14.787 0 0 1 1.438.464 4.715 4.715 0 0 1 1.228.681 3.161 3.161 0 0 1 .865 1.045 3.329 3.329 0 0 1 .328 1.553" transform="translate(-469.706 -59.904)" style="fill:#fff"/>
            </g>
        </g>
        <g data-name="그룹 342">
            <g data-name="그룹 341" style="opacity:.65">
                <g data-name="그룹 340">
                    <path data-name="패스 95" d="M986.377 376.338c4.344.756 5.763 3.308 6.43 6.3 2.017-1.538 4.134-3.043 4.4-8.685-.001.003-2.371 1.625-10.83 2.385z" transform="translate(-971.53 -373.956)" style="fill:#fff"/>
                </g>
            </g>
            <path data-name="패스 96" d="M930.766 400.335a9.692 9.692 0 0 1 7.876-4.132v-.282c0-3.785-2.238-7.946-7.595-7.946h-11.955a7.876 7.876 0 0 0 7.876 7.876h3.8z" transform="translate(-918.091 -385.089)" style="fill:#fff"/>
            <path data-name="패스 97" d="M975.819 432.093v9.228a7.876 7.876 0 0 0 7.876-7.876v-5.484a9.692 9.692 0 0 0-7.876 4.132z" transform="translate(-963.144 -416.848)" style="opacity:.65;fill:#fff"/>
        </g>
    </g>
</svg>
