<?xml version="1.0" encoding="utf-8"?>
<!-- Generator: Adobe Illustrator 26.3.0, SVG Export Plug-In . SVG Version: 6.00 Build 0)  -->
<svg version="1.1" id="레이어_1" xmlns="http://www.w3.org/2000/svg" xmlns:xlink="http://www.w3.org/1999/xlink" x="0px"
	 y="0px" viewBox="0 0 94 26" style="enable-background:new 0 0 94 26;" xml:space="preserve">
<style type="text/css">
	.st0{fill:#FF004C;}
	.st1{opacity:0.5;fill:#75002D;}
	.st2{fill:url(#SVGID_1_);}
	.st3{fill:url(#SVGID_00000183228518918622681070000000729996886232631946_);}
	.st4{fill:#3F3737;}
	.st5{fill:#2D2D2D;}
</style>
<g>
	<g>
		<g>
			<path class="st0" d="M14.6,2.5c4.6,0.8,6.1,3.5,6.8,6.6C23.5,7.5,25.7,5.9,26,0C26,0,23.5,1.7,14.6,2.5z"/>
		</g>
		<path class="st1" d="M14.6,2.5c4.6,0.8,6.1,3.5,6.8,6.6C21.4,5.9,20,2.7,14.6,2.5z"/>
		<linearGradient id="SVGID_1_" gradientUnits="userSpaceOnUse" x1="10.289" y1="3.0173" x2="10.289" y2="14.0468">
			<stop  offset="0" style="stop-color:#383838"/>
			<stop  offset="1" style="stop-color:#000000"/>
		</linearGradient>
		<path class="st2" d="M12.3,16c1.8-2.6,4.9-4.3,8.3-4.3v-0.3c0-4-2.4-8.4-8-8.4H0v0c0,4.6,3.7,8.3,8.3,8.3h4V16z"/>
		
			<linearGradient id="SVGID_00000137128170386466111480000005733839317201147522_" gradientUnits="userSpaceOnUse" x1="18.4957" y1="11.8952" x2="14.654" y2="22.3353">
			<stop  offset="0" style="stop-color:#2E2E2E"/>
			<stop  offset="1" style="stop-color:#141414"/>
		</linearGradient>
		<path style="fill:url(#SVGID_00000137128170386466111480000005733839317201147522_);" d="M12.3,16v9.7h0c4.6,0,8.3-3.7,8.3-8.3
			v-5.8C17.1,11.7,14.1,13.4,12.3,16z"/>
		<path class="st4" d="M20.4,11.7c-3.4,0.1-6.3,1.8-8.1,4.3v0.8C14.1,14.3,17.1,11.8,20.4,11.7z"/>
		<g>
			<path class="st5" d="M31.6,12.7v11.6h-2.3V12.7H28c-0.3,0-0.5,0-0.7,0.1c-0.2,0.1-0.3,0.1-0.4,0.2c-0.1,0.1-0.2,0.2-0.2,0.4
				c0,0.1,0,0.3,0,0.5l-1.5-0.8c0-0.3,0-0.6,0.1-0.9c0.1-0.3,0.2-0.5,0.3-0.7c0.2-0.2,0.4-0.4,0.7-0.5c0.3-0.1,0.7-0.2,1.2-0.2h8.4
				v1.9H31.6z"/>
			<path class="st5" d="M39.8,24.3v-1.7c-0.3,0.7-0.8,1.2-1.3,1.5c-0.6,0.3-1.2,0.5-2,0.5c-1,0-1.9-0.3-2.5-0.9
				c-0.6-0.6-0.9-1.4-0.9-2.5v-6.6h2v5.7c0,0.4,0,0.7,0.1,1c0.1,0.3,0.2,0.6,0.4,0.8c0.2,0.2,0.4,0.4,0.7,0.5c0.3,0.1,0.6,0.2,1,0.2
				c0.4,0,0.8-0.1,1.1-0.2c0.3-0.2,0.6-0.4,0.8-0.7c0.2-0.3,0.4-0.6,0.5-0.9c0.1-0.4,0.2-0.7,0.2-1.1v-5.3h2v9.7H39.8z"/>
			<path class="st5" d="M51.6,24.3v-1.1c-0.4,0.4-0.8,0.8-1.3,1c-0.5,0.2-1.1,0.4-1.8,0.4c-0.7,0-1.4-0.1-2-0.4
				c-0.6-0.3-1.1-0.6-1.5-1c-0.4-0.4-0.7-1-1-1.6c-0.2-0.6-0.3-1.3-0.3-2c0-0.7,0.1-1.4,0.3-2.1c0.2-0.6,0.6-1.2,1-1.7
				c0.4-0.5,0.9-0.8,1.5-1.1c0.6-0.3,1.3-0.4,2-0.4c0.6,0,1.2,0.1,1.7,0.3c0.5,0.2,1,0.5,1.3,0.9v-4.9h2v13.5H51.6z M51.6,17.9
				c0-0.3-0.1-0.6-0.3-0.8c-0.2-0.2-0.4-0.5-0.7-0.6c-0.3-0.2-0.6-0.3-0.9-0.4c-0.3-0.1-0.6-0.2-0.9-0.2c-0.6,0-1.1,0.1-1.5,0.3
				c-0.4,0.2-0.7,0.5-1,0.8c-0.3,0.3-0.4,0.7-0.6,1.2c-0.1,0.4-0.2,0.9-0.2,1.4c0,0.5,0.1,1,0.2,1.4c0.1,0.4,0.3,0.8,0.6,1.1
				c0.3,0.3,0.6,0.5,1,0.7c0.4,0.2,0.9,0.3,1.4,0.3c0.3,0,0.7,0,1-0.2c0.3-0.1,0.6-0.3,0.9-0.5c0.3-0.2,0.5-0.4,0.6-0.7
				c0.2-0.3,0.2-0.6,0.2-1V17.9z"/>
			<path class="st5" d="M63.3,24.3v-1.1c-0.4,0.4-0.8,0.8-1.3,1c-0.5,0.2-1.1,0.4-1.8,0.4c-0.7,0-1.4-0.1-2-0.4
				c-0.6-0.3-1.1-0.6-1.5-1c-0.4-0.4-0.7-1-1-1.6c-0.2-0.6-0.3-1.3-0.3-2c0-0.7,0.1-1.4,0.3-2.1c0.2-0.6,0.6-1.2,1-1.7
				c0.4-0.5,0.9-0.8,1.5-1.1c0.6-0.3,1.3-0.4,2-0.4c0.6,0,1.2,0.1,1.7,0.3c0.5,0.2,1,0.5,1.3,0.9v-1h2v9.7H63.3z M63.3,17.9
				c0-0.3-0.1-0.6-0.3-0.8c-0.2-0.2-0.4-0.5-0.7-0.6c-0.3-0.2-0.6-0.3-0.9-0.4c-0.3-0.1-0.6-0.2-0.9-0.2c-0.6,0-1.1,0.1-1.5,0.3
				c-0.4,0.2-0.7,0.5-1,0.8c-0.3,0.3-0.4,0.7-0.6,1.2c-0.1,0.4-0.2,0.9-0.2,1.4c0,0.5,0.1,1,0.2,1.4c0.1,0.4,0.3,0.8,0.6,1.1
				c0.3,0.3,0.6,0.5,1,0.7c0.4,0.2,0.9,0.3,1.4,0.3c0.3,0,0.7,0,1-0.2c0.3-0.1,0.6-0.3,0.9-0.5c0.3-0.2,0.5-0.4,0.6-0.7
				c0.2-0.3,0.2-0.6,0.2-1V17.9z"/>
			<path class="st5" d="M67.4,24.3V10.8h2v13.5H67.4z"/>
			<path class="st0" d="M79.5,23.5c-0.8,0.8-1.9,1.1-3.5,1.1c-1.6,0-2.7-0.4-3.5-1.1c-0.8-0.8-1.2-1.9-1.2-3.4v-9.3h3.2v9
				c0,0.3,0,0.5,0,0.8c0,0.3,0.1,0.5,0.2,0.8c0.1,0.2,0.2,0.4,0.4,0.6c0.2,0.2,0.4,0.2,0.8,0.2c0.3,0,0.6-0.1,0.8-0.2
				c0.2-0.2,0.3-0.3,0.4-0.6c0.1-0.2,0.2-0.5,0.2-0.8c0-0.3,0-0.5,0-0.8v-9h3.2v9.3C80.7,21.6,80.3,22.8,79.5,23.5z"/>
			<path class="st0" d="M93.5,20.2c0,0.8-0.2,1.5-0.5,2.1c-0.3,0.6-0.8,1-1.3,1.4c-0.5,0.3-1.2,0.6-1.8,0.8
				c-0.7,0.2-1.4,0.2-2.1,0.2c-0.3,0-0.7,0-1.1-0.1c-0.4-0.1-0.8-0.1-1.3-0.3c-0.4-0.1-0.9-0.3-1.3-0.5c-0.4-0.2-0.8-0.5-1.1-0.9
				c-0.3-0.4-0.6-0.8-0.8-1.3C82.1,21,82,20.4,82,19.8h3.2c0,0.9,0.3,1.6,0.8,2c0.5,0.4,1.2,0.6,2.1,0.6c0.3,0,0.5,0,0.8-0.1
				c0.3-0.1,0.5-0.2,0.7-0.3c0.2-0.1,0.4-0.3,0.5-0.6c0.1-0.2,0.2-0.5,0.2-0.8c0-0.3-0.1-0.5-0.2-0.7c-0.1-0.2-0.3-0.4-0.6-0.5
				c-0.3-0.1-0.6-0.3-1-0.4c-0.4-0.1-0.9-0.3-1.5-0.4c-0.5-0.2-1.1-0.3-1.6-0.5c-0.5-0.2-1-0.4-1.5-0.6c-0.4-0.3-0.8-0.6-1.1-1
				c-0.3-0.4-0.4-1-0.4-1.7c0-0.8,0.1-1.4,0.4-1.9c0.3-0.5,0.7-1,1.2-1.3c0.5-0.3,1-0.6,1.7-0.8c0.6-0.2,1.3-0.2,1.9-0.2
				c0.7,0,1.4,0.1,2,0.2c0.6,0.2,1.2,0.4,1.7,0.7c0.5,0.3,0.9,0.8,1.2,1.4s0.5,1.2,0.5,2h-3c0-0.4,0-0.7-0.2-0.9
				c-0.1-0.3-0.3-0.5-0.5-0.6c-0.2-0.2-0.5-0.3-0.8-0.4c-0.3-0.1-0.6-0.1-0.9-0.1c-0.2,0-0.5,0-0.7,0.1c-0.3,0-0.5,0.1-0.7,0.2
				c-0.2,0.1-0.4,0.3-0.5,0.5c-0.1,0.2-0.2,0.4-0.2,0.7c0,0.3,0.1,0.6,0.4,0.8c0.2,0.2,0.5,0.4,0.9,0.5c0.4,0.1,0.8,0.3,1.3,0.4
				c0.5,0.1,1,0.2,1.5,0.4c0.5,0.1,1,0.3,1.5,0.5c0.5,0.2,0.9,0.4,1.3,0.7c0.4,0.3,0.7,0.6,0.9,1.1C93.4,19,93.5,19.6,93.5,20.2z"/>
		</g>
	</g>
</g>
</svg>
