<svg width="30" height="30" viewBox="0 0 30 30" fill="none" xmlns="http://www.w3.org/2000/svg">
<g clip-path="url(#clip0_3866_25914)">
<path d="M12.0509 22.995H12.0456L10.6127 22.9749C10.4681 23.0052 10.3191 22.9818 10.1861 22.9079C10.0532 22.8341 9.94266 22.7135 9.86972 22.5625L7.80848 18.8309C7.76466 18.7503 7.73495 18.6602 7.72109 18.5658C7.70723 18.4715 7.70952 18.3747 7.72781 18.2814C7.74575 18.1884 7.77909 18.1004 7.82592 18.0227C7.87274 17.945 7.93211 17.8791 8.00059 17.8288C8.03611 17.8025 8.07762 17.7897 8.11947 17.7923L9.56829 17.8414C9.58442 17.8414 9.60047 17.8439 9.61605 17.8489C9.94984 17.9793 10.2367 18.2393 10.4301 18.5869L12.3555 22.0043C12.3991 22.0829 12.4288 22.1711 12.4429 22.2636C12.4569 22.3561 12.455 22.4511 12.4373 22.5427C12.4195 22.6343 12.3863 22.7208 12.3396 22.7968C12.2929 22.8728 12.2337 22.9368 12.1655 22.985C12.1305 23.0101 12.0912 22.995 12.0509 22.995ZM10.6021 22.4921H10.6085L11.9798 22.5424C12.0069 22.5064 12.0234 22.4609 12.0266 22.4127C12.0299 22.3646 12.0198 22.3166 11.9978 22.2759L10.0725 18.8585C9.93938 18.6257 9.74993 18.4459 9.52901 18.343L8.18422 18.2978C8.16277 18.3259 8.14778 18.3601 8.1407 18.3971C8.1348 18.4259 8.13392 18.4558 8.13812 18.4849C8.14232 18.5141 8.1515 18.542 8.16511 18.5668L10.2264 22.306C10.257 22.3802 10.3082 22.4397 10.3713 22.4746C10.4344 22.5096 10.5057 22.518 10.5734 22.4984C10.5829 22.4957 10.5924 22.4936 10.6021 22.4921Z" fill="#4D4A45"/>
<path d="M23.3018 8.77492H23.2562V6.47404C23.2593 6.4134 23.2521 6.35263 23.2348 6.29542C23.2175 6.23822 23.1905 6.1858 23.1556 6.14133C23.1206 6.09687 23.0784 6.0613 23.0314 6.0368C22.9845 6.01229 22.9338 5.99935 22.8825 5.99878L16.858 7.5855C16.8056 7.58565 16.7537 7.59816 16.7054 7.62227C16.657 7.64638 16.6132 7.68163 16.5765 7.72596C16.5398 7.77029 16.5108 7.82284 16.4914 7.88053C16.4719 7.93822 16.4623 7.99991 16.4632 8.06202V17.4277C16.4649 17.555 16.5088 17.6764 16.5855 17.7655C16.6622 17.8547 16.7654 17.9045 16.8729 17.9042L22.8783 19.4922C22.9299 19.4916 22.9808 19.4786 23.028 19.4541C23.0752 19.4296 23.1178 19.394 23.1531 19.3494C23.1884 19.3049 23.2157 19.2524 23.2334 19.195C23.2512 19.1377 23.2589 19.0766 23.2562 19.0156V17.3497H23.3018C24.2401 17.3497 25 15.4298 25 13.0611C25 10.6923 24.2401 8.77492 23.3018 8.77492Z" fill="#FF1D25"/>
<path d="M22.6118 18.2951C22.5555 18.2951 22.5015 18.2686 22.4617 18.2214C22.4219 18.1743 22.3995 18.1103 22.3995 18.0436C22.3995 17.9769 22.4219 17.913 22.4617 17.8658C22.5015 17.8187 22.5555 17.7922 22.6118 17.7922C23.3293 17.7922 24.0978 16.1702 24.0978 13.755C24.0978 11.3397 23.3304 9.71777 22.6118 9.71777C22.5555 9.71777 22.5015 9.69127 22.4617 9.64411C22.4219 9.59695 22.3995 9.533 22.3995 9.4663C22.3995 9.39961 22.4219 9.33566 22.4617 9.2885C22.5015 9.24134 22.5555 9.21484 22.6118 9.21484C23.6828 9.21484 24.5223 11.2089 24.5223 13.755C24.5223 16.301 23.6806 18.2951 22.6118 18.2951Z" fill="#4D4A45"/>
<path d="M8.52492 17.5885H5.61455C5.45165 17.5882 5.2955 17.5114 5.18031 17.3749C5.06512 17.2385 5.00028 17.0535 5 16.8605V10.6469C5.00028 10.454 5.06512 10.269 5.18031 10.1325C5.2955 9.99608 5.45165 9.91928 5.61455 9.91895H8.52492C8.68782 9.91928 8.84397 9.99608 8.95916 10.1325C9.07435 10.269 9.13919 10.454 9.13947 10.6469V16.8605C9.13919 17.0535 9.07435 17.2385 8.95916 17.3749C8.84397 17.5114 8.68782 17.5882 8.52492 17.5885V17.5885ZM5.61455 10.4219C5.56416 10.4219 5.51584 10.4456 5.48021 10.4878C5.44458 10.53 5.42456 10.5872 5.42456 10.6469V16.8605C5.42456 16.9202 5.44458 16.9775 5.48021 17.0197C5.51584 17.0619 5.56416 17.0856 5.61455 17.0856H8.52492C8.54987 17.0856 8.57457 17.0798 8.59762 17.0684C8.62067 17.0571 8.64162 17.0406 8.65926 17.0197C8.6769 16.9988 8.6909 16.974 8.70044 16.9466C8.70999 16.9193 8.71491 16.8901 8.71491 16.8605V10.6469C8.71491 10.6174 8.70999 10.5881 8.70044 10.5608C8.6909 10.5335 8.6769 10.5087 8.65926 10.4878C8.64162 10.4669 8.62067 10.4503 8.59762 10.439C8.57457 10.4277 8.54987 10.4219 8.52492 10.4219H5.61455Z" fill="#4D4A45"/>
<path d="M15.5302 8.41016H8.26812C8.04595 8.41016 7.86584 8.6235 7.86584 8.88667V18.3693C7.86584 18.6324 8.04595 18.8458 8.26812 18.8458H15.5302C15.7524 18.8458 15.9325 18.6324 15.9325 18.3693V8.88667C15.9325 8.6235 15.7524 8.41016 15.5302 8.41016Z" fill="white"/>
<path d="M15.5302 19.0972H8.26812C8.10521 19.0969 7.94906 19.0201 7.83387 18.8836C7.71868 18.7472 7.65385 18.5622 7.65356 18.3692V8.88667C7.65385 8.6937 7.71868 8.50872 7.83387 8.37227C7.94906 8.23582 8.10521 8.15902 8.26812 8.15869H15.5302C15.6931 8.15902 15.8493 8.23582 15.9645 8.37227C16.0797 8.50872 16.1445 8.6937 16.1448 8.88667V18.3692C16.1445 18.5622 16.0797 18.7472 15.9645 18.8836C15.8493 19.0201 15.6931 19.0969 15.5302 19.0972V19.0972ZM8.26812 8.66161C8.21773 8.66161 8.1694 8.68533 8.13377 8.72753C8.09814 8.76974 8.07813 8.82699 8.07813 8.88667V18.3692C8.07813 18.4289 8.09814 18.4862 8.13377 18.5284C8.1694 18.5706 8.21773 18.5943 8.26812 18.5943H15.5302C15.5552 18.5943 15.5799 18.5885 15.6029 18.5772C15.626 18.5659 15.6469 18.5493 15.6646 18.5284C15.6822 18.5075 15.6962 18.4827 15.7058 18.4554C15.7153 18.4281 15.7202 18.3988 15.7202 18.3692V8.88667C15.7202 8.85712 15.7153 8.82785 15.7058 8.80054C15.6962 8.77324 15.6822 8.74843 15.6646 8.72753C15.6469 8.70663 15.626 8.69005 15.6029 8.67874C15.5799 8.66743 15.5552 8.66161 15.5302 8.66161H8.26812Z" fill="#4D4A45"/>
<path d="M22.2255 20.4364C22.2102 20.4363 22.1949 20.4341 22.1799 20.4301L16.1776 18.8459C16.0221 18.8355 15.8762 18.7536 15.7709 18.6176C15.6657 18.4816 15.6094 18.3023 15.614 18.1179V8.75227C15.6094 8.56756 15.666 8.38806 15.7718 8.25222C15.8775 8.11637 16.024 8.035 16.1798 8.02554L22.1671 6.4426C22.1827 6.44068 22.1983 6.44068 22.2138 6.4426C22.2947 6.44227 22.3748 6.46081 22.4496 6.49715C22.5244 6.53349 22.5924 6.58694 22.6498 6.65442C22.7071 6.7219 22.7527 6.80211 22.7839 6.89045C22.8151 6.9788 22.8313 7.07356 22.8316 7.16933V19.7109C22.8327 19.8059 22.8178 19.9002 22.7879 19.9884C22.7579 20.0765 22.7134 20.1567 22.657 20.2242C22.6006 20.2917 22.5333 20.3453 22.4593 20.3817C22.3852 20.4182 22.3057 20.4367 22.2255 20.4364V20.4364ZM22.2329 6.94301L16.2509 8.52344C16.2354 8.52598 16.2197 8.52598 16.2042 8.52344C16.1805 8.52434 16.1572 8.53099 16.1358 8.54298C16.1144 8.55497 16.0953 8.57204 16.0796 8.59314C16.064 8.61424 16.0522 8.63892 16.045 8.66564C16.0377 8.69237 16.0352 8.72056 16.0375 8.74849V18.1142C16.0352 18.142 16.0377 18.1701 16.0449 18.1967C16.0521 18.2234 16.0638 18.248 16.0793 18.2691C16.0948 18.2901 16.1138 18.3073 16.1351 18.3193C16.1564 18.3314 16.1795 18.3381 16.2031 18.3392C16.2183 18.3374 16.2336 18.3374 16.2488 18.3392L22.2436 19.9196C22.2893 19.9131 22.3314 19.8865 22.3614 19.8451C22.3915 19.8036 22.4074 19.7504 22.406 19.6958V7.15424C22.4023 7.10072 22.383 7.05038 22.3515 7.01184C22.3199 6.9733 22.278 6.94896 22.2329 6.94301V6.94301Z" fill="#4D4A45"/>
</g>
<defs>
<clipPath id="clip0_3866_25914">
<rect width="20" height="17" fill="white" transform="translate(5 6)"/>
</clipPath>
</defs>
</svg>
