<?xml version="1.0" encoding="UTF-8"?><svg id="_이어_2" xmlns="http://www.w3.org/2000/svg" viewBox="0 0 937.19 669.44"><defs><style>.cls-1{fill:#0173de;}.cls-2{fill:#f68a9c;}.cls-3{fill:#e94a2d;}.cls-4{fill:#fff;}.cls-5{fill:#ffead4;}.cls-6{fill:#ffc9b4;}.cls-7{fill:#a0373c;}.cls-8{fill:#c44849;}.cls-9{fill:#d8aa7a;}.cls-10{fill:#c9e1ff;}.cls-11{fill:#dff3ff;}.cls-12{fill:#212123;}.cls-13{fill:#383544;}.cls-14{fill:#547ab2;}</style></defs><g id="Layer_1"><g><polygon class="cls-2" points="746.77 194.5 739.59 201.19 712.33 192.57 715.47 184.73 746.77 194.5"/><g><path class="cls-2" d="M825.47,147.04l-35.02-1.3-.93,25.13c-.23,6.18,5.29,11,11.38,9.96l12.54-2.16c6.37-1.1,11.1-6.5,11.34-12.96l.69-18.67Z"/><path class="cls-2" d="M793.08,129.09h2.92c1.35,0,2.45,1.1,2.45,2.45v21.42h-7.82v-21.42c0-1.35,1.1-2.45,2.45-2.45Z" transform="translate(5.77 -29.33) rotate(2.12)"/><path class="cls-2" d="M786.58,160.13h2.92c1.35,0,2.45,1.1,2.45,2.45v21.42h-7.82v-21.42c0-1.35,1.1-2.45,2.45-2.45Z" transform="translate(291.57 807.78) rotate(-64.33)"/><path class="cls-2" d="M802.24,126.77h2.92c1.35,0,2.45,1.1,2.45,2.45v21.42h-7.82v-21.42c0-1.35,1.1-2.45,2.45-2.45Z" transform="translate(5.68 -29.65) rotate(2.12)"/><path class="cls-2" d="M811.21,129.77h2.92c1.35,0,2.45,1.1,2.45,2.45v21.42h-7.82v-21.42c0-1.35,1.1-2.45,2.45-2.45Z" transform="translate(5.8 -29.98) rotate(2.12)"/><path class="cls-2" d="M820.07,135.57h2.92c1.35,0,2.45,1.1,2.45,2.45v21.42h-7.82v-21.42c0-1.35,1.1-2.45,2.45-2.45Z" transform="translate(6.02 -30.3) rotate(2.12)"/></g><g><path class="cls-2" d="M52.77,386.42l24.89-23.35,16.76,17.86c4.12,4.39,3.16,11.46-1.99,14.59l-10.59,6.43c-5.38,3.27-12.31,2.32-16.62-2.27l-12.45-13.27Z"/><path class="cls-2" d="M67.84,350.59h7.62v20.8c0,1.35-1.1,2.45-2.45,2.45h-2.72c-1.35,0-2.45-1.1-2.45-2.45v-20.8h0Z" transform="translate(371.71 577.38) rotate(136.83)"/><path class="cls-2" d="M59.62,354.75h7.62v20.8c0,1.35-1.1,2.45-2.45,2.45h-2.72c-1.35,0-2.45-1.1-2.45-2.45v-20.8h0Z" transform="translate(360.34 590.2) rotate(136.83)"/><path class="cls-2" d="M54.95,362.68h7.62v20.8c0,1.35-1.1,2.45-2.45,2.45h-2.72c-1.35,0-2.45-1.1-2.45-2.45v-20.8h0Z" transform="translate(357.68 607.12) rotate(136.83)"/><path class="cls-2" d="M52.15,372.62h7.62v20.8c0,1.35-1.1,2.45-2.45,2.45h-2.72c-1.35,0-2.45-1.1-2.45-2.45v-20.8h0Z" transform="translate(359.65 626.21) rotate(136.83)"/><path class="cls-2" d="M86.58,361.42h7.62v20.8c0,1.35-1.1,2.45-2.45,2.45h-2.72c-1.35,0-2.45-1.1-2.45-2.45v-20.8h0Z" transform="translate(112.63 756.25) rotate(-169.7)"/></g><path class="cls-11" d="M363.21,386.57c-5.69-15.51-3.51-46.79-3.51-46.79l36.28-8.73,2.92,36.78s-11.38,85.01-35.7,18.74Z"/><polygon class="cls-2" points="528.58 283.29 530.32 291.19 558.42 290.1 553.52 279.79 528.58 283.29"/><g><path class="cls-2" d="M568.45,267.39l-29.47-17.22-12.36,21.15c-3.04,5.2-.52,11.88,5.19,13.78l11.76,3.92c5.97,1.99,12.52-.48,15.7-5.91l9.18-15.71Z"/><path class="cls-2" d="M543.3,236.37h2.72c1.35,0,2.45,1.1,2.45,2.45v20.8h-7.62v-20.8c0-1.35,1.1-2.45,2.45-2.45Z" transform="translate(199.58 -240.95) rotate(30.31)"/><path class="cls-2" d="M523.44,260.03h2.72c1.35,0,2.45,1.1,2.45,2.45v20.8h-7.62v-20.8c0-1.35,1.1-2.45,2.45-2.45Z" transform="translate(-59.22 361.82) rotate(-36.14)"/><path class="cls-2" d="M552.24,238.6h2.72c1.35,0,2.45,1.1,2.45,2.45v20.8h-7.62v-20.8c0-1.35,1.1-2.45,2.45-2.45Z" transform="translate(201.92 -245.16) rotate(30.31)"/><path class="cls-2" d="M558.56,245.29h2.72c1.35,0,2.45,1.1,2.45,2.45v20.8h-7.62v-20.8c0-1.35,1.1-2.45,2.45-2.45Z" transform="translate(206.17 -247.44) rotate(30.31)"/><path class="cls-2" d="M563.5,254.36h2.72c1.35,0,2.45,1.1,2.45,2.45v20.8h-7.62v-20.8c0-1.35,1.1-2.45,2.45-2.45Z" transform="translate(211.41 -248.69) rotate(30.31)"/></g><path class="cls-11" d="M512.69,394.86c38.31,1.14,48.46-13.86,50.57-30.24,2.1-16.38-.54-81.53-.54-81.53l-38.2,7.35,.28,60.3s-50.98-6.34-63.13,1.36c-12.15,7.7-11.68,18.57-6.33,26.96,5.35,8.39,39.73,15.28,57.36,15.8Z"/><path class="cls-7" d="M891.08,64.3c-9.13,6.72-18.46,13.38-27.98,19.98-74.36,51.51-160.43,99.08-256.37,141.65-86.26,38.27-180.68,72.63-280.66,102.12-64.11,18.91-129.42,22.6-176.82,33.25l-131.33-3.3v-10c1.26-.18,127.94-18.85,294.82-68.14,133.47-39.43,317.22-106.04,478.52-208.02,21.73-13.73,43.05-28.11,63.79-43.16l7.95-2.52,28.08,38.14Z"/><polygon class="cls-7" points="930.23 4.82 937.19 12.61 889.08 88.77 863.1 84.28 791.26 71.84 744.54 73.76 744.54 63.76 855.05 28.68 863 26.16 930.23 4.82"/><path class="cls-8" d="M891.08,74.3c-9.13,6.72-18.46,13.38-27.98,19.98-74.36,51.51-153.19,89.96-249.13,132.53-86.26,38.27-194.56,75.11-294.54,104.6-64.11,18.91-127.07,32.36-170.18,40.62l-131.33-14.03c1.26-.18,127.94-18.85,294.82-68.14,133.47-39.43,317.22-106.04,478.52-208.02,21.73-13.73,43.05-28.11,63.79-43.16l7.95-2.52,28.08,38.14Z"/><path class="cls-12" d="M461.13,292.61c-4.68,.05-12.76,1.04-17.56,6.63-4.8,5.59,27.56-.64,27.56-.64l-10-5.99Z"/><path class="cls-12" d="M461.13,292.61s5.72,.45,7.34-2.22-.37-3.55-.37-3.55c0,0,7.06-.14,7.69,6.69,.77,8.33-8.39,8.01-8.39,8.01l-6.27-8.94Z"/><path class="cls-2" d="M486.82,663.03h19.01l3.08-3.82,13.49,3.82h42.72c2.64,0,4.65-2.56,3.97-5.09-.64-2.41-1.81-4.6-3.4-6.41-1.59-1.83-3.59-3.28-5.89-4.24l-.31-.12-16.31-6.18-1.09-17.36-44.94-4.68-.78,15.28h-.02c-.5,.3-8.46,5.24-9.54,28.79Z"/><path class="cls-2" d="M486.82,663.03h19.01l3.08-3.82,13.49,3.82h42.72c2.64,0,4.65-2.56,3.97-5.09-.64-2.41-1.81-4.6-3.4-6.41-1.59-1.83-3.59-3.28-5.89-4.24l-.31-.12-16.31-6.18-1.09-17.36-44.94-4.68-.78,15.28h-.02s-.01,.01-.02,.02c-.63,.37-8.45,5.43-9.52,28.77Z"/><path class="cls-12" d="M486.82,663.03h19.01l3.08-3.82,13.49,3.82h42.72c2.64,0,4.65-2.56,3.97-5.09-.64-2.41-1.81-4.6-3.4-6.41-1.59-1.83-3.59-3.28-5.89-4.24l-.31-.12-16.31-6.18-11.4,.53c-2.52,.12-3.78,3.22-2,4.91l.3,.29-33.74-12.48s-.01,0-.02,.01c-.63,.37-8.45,5.43-9.52,28.77Z"/><path class="cls-2" d="M339.41,663.03h19.01l4.02-3.82,12.55,3.82h42.72c2.64,0,5.28-2.56,5.22-5.09-.04-2.41-.69-4.6-1.82-6.41-1.14-1.83-2.78-3.28-4.85-4.24l-.28-.12-14.79-6.18,3.17-17.36-43.79-4.68-4.54,15.28h-.02c-.57,.3-9.74,5.24-16.6,28.79Z"/><path class="cls-2" d="M339.41,663.03h19.01l4.02-3.82,12.55,3.82h42.72c2.64,0,5.28-2.56,5.22-5.09-.04-2.41-.69-4.6-1.82-6.41-1.14-1.83-2.78-3.28-4.85-4.24l-.28-.12-14.79-6.18,3.17-17.36-43.79-4.68-4.53,15.28h-.02s-.01,.01-.02,.02c-.72,.37-9.78,5.43-16.58,28.77Z"/><path class="cls-12" d="M339.41,663.03h19.01l4.02-3.82,12.55,3.82h42.72c2.64,0,5.28-2.56,5.22-5.09-.04-2.41-.69-4.6-1.82-6.41-1.14-1.83-2.78-3.28-4.85-4.24l-.28-.12-14.79-6.18-11.53,.53c-2.55,.12-4.57,3.22-3.21,4.91l.23,.29-30.67-12.48s-.01,0-.02,.01c-.72,.37-9.78,5.43-16.58,28.77Z"/><polygon class="cls-9" points="518.69 479.62 569.31 537.35 542.97 627.72 490.89 627.72 519.13 543.8 449.29 481.5 518.69 479.62"/><path class="cls-9" d="M489.87,470.81l-82.6,157.53h-51.88s60.94-116.23,68.13-163.05l66.36,5.52Z"/><path class="cls-10" d="M451.23,350.91l-3.26,2.46c-9.23,6.97-15.25,17.37-16.71,28.85l-12.65,107.14,100.29-8.69s1.98-61.08-5.65-89.03c-7.63-27.95-13.75-45.26-40.63-49.09l-21.39,8.36Z"/><polygon class="cls-2" points="456.7 353.93 480.26 348.99 470.05 323.82 449.29 328.81 456.7 353.93"/><polygon class="cls-12" points="473.12 331.59 459.81 335.28 475.65 338.55 473.12 331.59"/><path class="cls-2" d="M442.11,319.7c2.66,7.6,9.33,13.76,17.32,15.14,10.67,1.85,19.67-5.5,20.1-16.42,.43-10.92-7.88-21.28-18.55-23.13-.53-.09-1.06-.16-1.59-.21-9.96-.9-18.1,6.25-18.51,16.63-.11,2.74,.33,5.44,1.22,7.98Z"/><path class="cls-12" d="M443.98,324.72c18.01-9.72,17.78-26.91,17.85-30.53h0c-11.59-1.44-22.93,4.07-22.64,16.54,.14,6.24,2.73,11.38,4.8,13.99Z"/><path class="cls-2" d="M439.35,326.32c.98,4.09,5.1,6.61,9.19,5.63s6.61-5.1,5.63-9.19-5.1-6.61-9.19-5.63-6.61,5.1-5.63,9.19Z"/><path class="cls-12" d="M450.78,326.95c-.09,0-.18-.02-.26-.08-.23-.15-.31-.45-.16-.69,1.14-1.84,.58-4.26-1.25-5.41-.89-.56-1.94-.73-2.96-.49-1.02,.24-1.89,.86-2.44,1.75-.15,.23-.45,.31-.69,.16-.23-.15-.31-.45-.16-.69,.7-1.12,1.79-1.89,3.07-2.19,1.28-.3,2.6-.08,3.72,.62,2.3,1.44,3.01,4.48,1.57,6.78-.09,.15-.26,.24-.42,.24Z"/><path class="cls-12" d="M464.28,314.09c.16,.67,.84,1.09,1.51,.93,.67-.16,1.09-.84,.93-1.51-.16-.67-.84-1.09-1.51-.93-.67,.16-1.09,.84-.93,1.51Z"/><path class="cls-12" d="M471.25,309.51c.16,.67,.84,1.09,1.51,.93,.67-.16,1.09-.84,.93-1.51-.16-.67-.84-1.09-1.51-.93-.67,.16-1.09,.84-.93,1.51Z"/><path class="cls-12" d="M461.84,294.19c.96,1.93,1.15,4.18,1.01,6.32-.13,2.13-.57,4.25-1.54,6.06-.97,1.81-2.51,3.28-4.38,3.8"/><path class="cls-12" d="M469.45,316.84c-.16,0-.32-.08-.41-.22-.16-.23-.09-.54,.13-.69,.88-.59,1.8-1.14,2.75-1.62-1.58-1.75-3.16-3.5-4.74-5.25-.18-.21-.17-.52,.04-.71,.2-.19,.52-.17,.71,.04,1.73,1.91,3.46,3.83,5.18,5.74,.11,.12,.15,.28,.12,.43-.03,.15-.13,.29-.27,.35-1.11,.53-2.2,1.16-3.22,1.85-.09,.06-.18,.09-.28,.09Z"/><path class="cls-12" d="M470.8,305.45c-.35,.46-.65,.66-1.04,.87-.39,.19-.81,.4-1.43,.48h-.03c-.31,.05-.6-.17-.65-.48,0-.07,0-.14,0-.21,.15-.65,.55-1.12,1.06-1.48,.5-.35,1.2-.57,1.89-.29,.33,.14,.49,.52,.35,.85-.02,.05-.05,.1-.08,.14l-.09,.11Z"/><path class="cls-12" d="M463.3,310.33c-.39,.62-.83,.95-1.31,1.27-.49,.31-.97,.59-1.66,.78h-.03c-.29,.09-.59-.08-.67-.37-.02-.09-.03-.18,0-.27,.18-.76,.66-1.33,1.22-1.76,.57-.42,1.26-.72,2.05-.6,.33,.05,.56,.36,.51,.69-.01,.08-.04,.16-.08,.23l-.02,.03Z"/><path class="cls-3" d="M471.72,317.88l-7.2-.1s1.6,4.72,3.28,4.78c1.68,.06,3.92-4.68,3.92-4.68Z"/><polygon class="cls-11" points="477.7 342.66 483.81 345.21 489.87 354.73 479.74 349.09 477.7 342.66"/><polygon class="cls-11" points="479.74 349.09 474.06 360.92 448.81 354.09 454 345.33 479.74 349.09"/><path class="cls-11" d="M398.91,367.82l49.9-13.73s15.83,35.74-.12,45.98c-15.95,10.24-59.05,11.12-69.19,11.64-10.14,.52,19.41-43.89,19.41-43.89Z"/><polygon class="cls-8" points="937.19 12.61 889.08 98.77 863.1 94.28 791.26 81.84 744.54 73.76 855.05 38.68 863 36.16 937.19 12.61"/><g><path class="cls-2" d="M353.7,329.84l5.53-22.25,26.25,2.41c6.46,.59,10.38,4.65,8.09,8.37l-4.7,7.65c-2.39,3.89-8.93,6.23-15.67,5.61l-19.51-1.79Z"/><path class="cls-2" d="M340.86,309.35l.44-1.77c.22-.88,1.57-1.49,3.02-1.36l22.3,2.05-1.23,4.97-22.3-2.05c-1.45-.13-2.45-.96-2.23-1.84Z"/><path class="cls-2" d="M382.34,302.04l2.85-.46c1.42-.23,2.87,.28,3.25,1.14l5.82,13.25-7.98,1.3-5.82-13.25c-.38-.86,.46-1.75,1.88-1.98Z"/><path class="cls-2" d="M336.65,314.85l.44-1.77c.22-.88,1.57-1.49,3.02-1.36l22.3,2.05-1.23,4.97-22.3-2.05c-1.45-.13-2.45-.96-2.23-1.84Z"/><path class="cls-2" d="M337.99,320.87l.44-1.77c.22-.88,1.57-1.49,3.02-1.36l22.3,2.05-1.23,4.97-22.3-2.05c-1.45-.13-2.45-.96-2.23-1.84Z"/><path class="cls-2" d="M342.28,327.16l.44-1.77c.22-.88,1.57-1.49,3.02-1.36l22.3,2.05-1.23,4.97-22.3-2.05c-1.45-.13-2.45-.96-2.23-1.84Z"/></g><polygon class="cls-2" points="394.25 315.97 394.07 331.59 362.04 339.22 361.19 329.44 394.25 315.97"/><path class="cls-2" d="M263.92,371.06s4.27,11.92,3.73,11.94c-.54,.01-31.32,6.9-31.32,6.9l-6.72-15.24,34.31-3.59"/><g><path class="cls-2" d="M269.27,366.03l-21.62-16.78-18.33,14.34c-4.51,3.53-4.36,8.89,.3,11.06l9.59,4.47c4.87,2.27,11.73,1.26,16.44-2.43l13.62-10.66Z"/><path class="cls-2" d="M263.17,342.21l-1.72-1.34c-.86-.67-2.37-.56-3.38,.23l-15.57,12.18,4.82,3.75,15.57-12.18c1.01-.79,1.14-1.97,.28-2.64Z"/><path class="cls-2" d="M233.88,350.72l-2.65,.11c-1.32,.06-2.51,.94-2.66,1.97l-2.35,15.88,7.42-.32,2.35-15.88c.15-1.03-.79-1.82-2.11-1.77Z"/><path class="cls-2" d="M270.7,345.04l-1.72-1.34c-.86-.67-2.37-.56-3.38,.23l-15.57,12.18,4.82,3.75,15.57-12.18c1.01-.79,1.14-1.97,.28-2.64Z"/><path class="cls-2" d="M274.36,350.9l-1.72-1.34c-.86-.67-2.37-.56-3.38,.23l-15.57,12.18,4.82,3.75,15.57-12.18c1.01-.79,1.14-1.97,.28-2.64Z"/><path class="cls-2" d="M275.97,358.37l-1.72-1.34c-.86-.67-2.37-.56-3.38,.23l-15.57,12.18,4.82,3.75,15.57-12.18c1.01-.79,1.14-1.97,.28-2.64Z"/></g><path class="cls-2" d="M62.74,611.43l-14.88,11.84,.11,4.8-13.07,5.52L1.48,660.2c-2.07,1.65-1.95,4.83,.24,6.31,2.09,1.42,4.45,2.34,6.88,2.72,2.45,.38,4.97,.24,7.4-.47l.32-.11,16.83-5.5,59.9,1v-32.29l-18.01,1.38v-.02c.21-.53-6.28-6.87-12.31-21.79Z"/><path class="cls-12" d="M62.74,611.43l-14.88,11.84,.11,4.8-13.07,5.52L1.48,660.2c-2.07,1.65-1.95,4.83,.24,6.31,2.09,1.42,4.45,2.34,6.88,2.72,2.45,.38,4.97,.24,7.4-.47l.32-.11,16.83-5.5,8.56-7.5c1.89-1.66,.84-4.78-1.67-4.95l-.43-.03,35.43-17.46s0,0,0-.02c.25-.67,2.22-3.5-12.32-21.77Z"/><path class="cls-6" d="M230.66,663.03h19.01l2.9-3.82,13.67,3.82h42.72c2.64,0,4.53-2.56,3.74-5.09-.75-2.41-2.03-4.6-3.69-6.41-1.68-1.83-3.74-3.28-6.09-4.24l-.32-.12-16.59-6.18-1.88-17.36-45.15-4.68-.08,15.28h-.02c-.49,.3-8.22,5.24-8.22,28.79Z"/><path class="cls-2" d="M230.66,663.03h19.01l2.9-3.82,13.67,3.82h42.72c2.64,0,4.53-2.56,3.74-5.09-.75-2.41-2.03-4.6-3.69-6.41-1.68-1.83-3.74-3.28-6.09-4.24l-.32-.12-16.59-6.18-1.89-17.36-45.15-4.68-.08,15.28h-.02s-.01,.01-.02,.02c-.61,.37-8.2,5.43-8.2,28.77Z"/><path class="cls-5" d="M139.66,483.31s6.84,10.05-16.07,10.42c-22.91,.37-60.16-13.63-60.16-13.63,0,0-19.22-3.96-11.84-38.41,4.94-23.05,11.84-41.95,11.84-41.95l34.32-1.29-9.24,46.73s27.11,3.81,47.83,6.54c15.17,2,3.32,31.58,3.32,31.58Z"/><path class="cls-5" d="M196.66,447.68s47.84-20.2,45.98-27.97c-2.89-12.03-10.87-32.4-10.87-32.4l37.71-6.06s9.41,21.8,12.71,43.37c3.19,20.83-1.42,31.28-73.94,70.22-26.81,14.4-11.58-47.17-11.58-47.17Z"/><path class="cls-5" d="M122.16,463.35c8.27-11.41,20.2-12,20.2-12l5.9-.39,28.82-4.66s2.83-.03,7.15,.2c5.21,.28,12.59,.93,19.83,2.48,5.06,1.08,10.06,2.6,14.2,4.73,15.15,7.79-1.08,30.24-7.58,38.25l1.02,13.88,4.63,55.98v.04h0l-98.88,12.11c-7.95-32.53-8.91-91.85,4.69-110.62Z"/><path class="cls-12" d="M164.7,393.05c3.67-1.94,8.56-1.23,11.53,1.67,.78,.76,1.45,1.67,1.78,2.72,.34,1.04,.32,2.22-.19,3.19-.56,1.06-1.65,1.77-2.8,2.11s-2.38,.34-3.58,.3"/><polygon class="cls-2" points="152.42 450.2 175.55 448.5 170.07 423.25 149.24 424.79 152.42 450.2"/><polygon class="cls-12" points="171.8 431.23 158.37 432.69 173.14 438.35 171.8 431.23"/><path class="cls-2" d="M143.75,414.86c1.36,7.75,6.83,14.75,14.32,17.36,10.01,3.48,19.86-2.19,22-12.66,2.14-10.47-4.24-21.78-14.25-25.26-.5-.17-1-.32-1.5-.45-9.47-2.44-18.46,3.17-20.49,13.12-.54,2.62-.54,5.3-.08,7.9Z"/><path class="cls-12" d="M144.77,420c18.92-6.53,21.42-23.16,22.05-26.64h0c-10.96-3.23-22.77,.31-24.47,12.38-.85,6.04,.84,11.41,2.42,14.26Z"/><path class="cls-12" d="M173.71,410.56c.05,.68,.64,1.18,1.31,1.13,.68-.05,1.18-.64,1.13-1.31-.05-.68-.64-1.18-1.31-1.13-.68,.05-1.18,.64-1.13,1.31Z"/><path class="cls-12" d="M166.04,412.95c.05,.68,.64,1.18,1.31,1.13s1.18-.64,1.13-1.31c-.05-.68-.64-1.18-1.31-1.13-.68,.05-1.18,.64-1.13,1.31Z"/><path class="cls-12" d="M166.83,393.36c.63,2.01,.45,4.22-.02,6.26-.47,2.03-1.23,4.01-2.45,5.61-1.22,1.59-2.94,2.77-4.83,2.98"/><path class="cls-12" d="M166.61,393.32c2.19,1.47,3.65,4.23,3.72,7.06,.03,1.34-.26,2.74-1.09,3.7-1.03,1.18-2.69,1.44-4.15,1.1-.93-.22-1.87-.7-2.35-1.61"/><path class="cls-12" d="M170.71,416.5c.06,0,.13-.02,.19-.05,1.1-.5,2.24-.93,3.39-1.27,.17-.05,.31-.18,.37-.34,.06-.17,.04-.35-.05-.5-1.36-2.12-2.73-4.24-4.09-6.36-.17-.26-.52-.34-.78-.17-.26,.17-.34,.52-.17,.78,1.23,1.91,2.46,3.82,3.69,5.74-.96,.31-1.91,.68-2.83,1.1-.28,.13-.41,.46-.28,.74,.1,.22,.32,.34,.55,.33Z"/><path class="cls-12" d="M174.13,405.65c-.64-.44-1.38-.34-1.93-.07-.56,.28-1.02,.69-1.24,1.34-.12,.35,.07,.73,.42,.85,.05,.02,.1,.03,.15,.03h.05c.63,.06,1.07-.05,1.47-.16,.41-.13,.69-.28,1.09-.73l.13-.14c.28-.31,.25-.78-.06-1.06-.02-.02-.05-.04-.07-.06Z"/><path class="cls-12" d="M165.83,408.76c-.77-.3-1.5-.13-2.12,.2-.62,.34-1.17,.83-1.43,1.58-.11,.33,.06,.69,.39,.8,.08,.03,.15,.04,.23,.03h.04c.72-.03,1.23-.21,1.75-.42,.51-.22,.96-.48,1.41-1.07l.03-.04c.24-.31,.18-.75-.13-.99-.05-.04-.11-.07-.17-.1Z"/><path class="cls-3" d="M172.61,417.79l-6.93-1.23s.8,4.8,2.41,5.13c1.61,.33,4.52-3.9,4.52-3.9Z"/><polygon class="cls-4" points="165.18 449.26 173.79 441.69 177.08 446.3 172.68 458.71 165.18 449.26"/><polygon class="cls-5" points="165.18 449.26 151.76 443.65 148.26 450.96 157.43 459.83 165.18 449.26"/><polygon class="cls-1" points="169.96 454.17 167.69 459.62 163.34 459.94 160.98 454.94 164.75 450.18 169.96 454.17"/><path class="cls-5" d="M176.07,458.87c.05,0,.11-.02,.16-.04,.17-.07,.3-.21,.34-.39,.97-4.03,1.36-8.17,1.16-12.31-.02-.31-.28-.55-.59-.53-.33,0-.55,.28-.53,.59,.19,3.76-.13,7.52-.95,11.2-3.54-2.42-7.03-4.98-10.38-7.64-.24-.19-.6-.15-.79,.09-.19,.24-.15,.6,.09,.79,3.58,2.84,7.32,5.58,11.13,8.15,.11,.07,.23,.1,.35,.09Z"/><path class="cls-12" d="M156.24,460.86c.14-.01,.26-.07,.36-.17,3.07-3.15,5.91-6.58,8.44-10.18,.18-.25,.12-.6-.14-.78-.25-.18-.6-.12-.78,.14-2.37,3.38-5.02,6.6-7.88,9.58-2.28-2.88-4.7-5.68-7.22-8.33-.21-.23-.57-.24-.79-.02-.23,.21-.23,.57-.02,.79,2.64,2.79,5.18,5.73,7.55,8.76,.1,.13,.25,.21,.41,.22,.02,0,.05,0,.07,0Z"/><polygon class="cls-1" points="154.27 527 163.62 544.82 173.71 526.92 167.69 459.62 163.34 459.94 154.27 527"/><path class="cls-12" d="M164.32,460.84s.03,0,.05,0c1.06-.18,2.14-.26,3.21-.25,.3,0,.56-.25,.57-.56,0-.31-.25-.56-.56-.57-1.13,0-2.28,.08-3.4,.27-.31,.05-.51,.34-.46,.65,.05,.29,.31,.49,.59,.47Z"/><path class="cls-1" d="M168.1,567.76l60.75-44c6.11-5.12,13.83-7.93,21.8-7.93h2.22c18.74,0,33.94,15.19,33.94,33.94v82.25h-49.56v-54.81l-56.76,46.23-12.39-55.68Z"/><path class="cls-1" d="M177.79,566.57l-60.33,7.39h.14c-2.52,18.41,2.53,27.52,9.6,35.18h0v18.71h-50.19v39.03h71.87c19.77,0,35.36-16.84,33.83-36.55l-4.92-63.76Z"/><path class="cls-12" d="M230.66,663.03h19.01l2.9-3.82,13.67,3.82h42.72c2.64,0,4.53-2.56,3.74-5.09-.75-2.41-2.03-4.6-3.69-6.41-1.68-1.83-3.74-3.28-6.09-4.24l-.32-.12-16.59-6.18-11.37,.53c-2.51,.12-3.63,3.22-1.77,4.91l.32,.29-34.31-12.48s-.01,0-.02,.01c-.61,.37-8.2,5.43-8.2,28.77Z"/><path class="cls-14" d="M182.08,622.64c-.26,0-.48-.2-.5-.47l-2.34-34.75c-.02-.28,.19-.51,.47-.53,.29-.02,.51,.19,.53,.47l2.34,34.75c.02,.28-.19,.51-.47,.53-.01,0-.02,0-.03,0Z"/><path class="cls-2" d="M139.74,418.39c-.89,4.02,1.65,7.99,5.67,8.88,4.02,.89,7.99-1.65,8.88-5.67,.89-4.02-1.65-7.99-5.67-8.88s-7.99,1.65-8.88,5.67Z"/><path class="cls-12" d="M151.1,423.3c.14-.01,.28-.07,.38-.19,.86-.98,1.29-2.24,1.2-3.54-.08-1.3-.67-2.5-1.65-3.36-.98-.86-2.24-1.29-3.54-1.2h-.04c-1.29,.1-2.46,.68-3.32,1.65-.2,.23-.18,.59,.05,.79,.23,.2,.59,.18,.79-.05,.66-.76,1.58-1.19,2.59-1.27,1-.07,1.97,.26,2.73,.93,.76,.66,1.21,1.58,1.28,2.59,.07,1-.26,1.97-.93,2.73-.2,.23-.18,.59,.05,.79,.12,.1,.27,.15,.41,.14Z"/><path class="cls-5" d="M780.22,315.96l9.46-63.59-.76-70.92,39.33-7.74,3.09,80.28c-1.57,36.33-17.8,103.98-17.8,103.98l-33.32-42.01Z"/><path class="cls-12" d="M755.18,256.25c-1.62-4.3-6.5-6.96-11.06-6.41-4.56,.55-8.52,4.03-10.09,8.34-1.57,4.31-.88,9.29,1.4,13.27,.75,1.31,1.67,2.54,2.1,3.98,.43,1.44,.24,3.21-.93,4.15-.8,.64-1.88,.78-2.86,1.09-4.43,1.42-6.68,7.03-5.14,11.42,1.53,4.4,6.08,7.31,10.72,7.73,1.6,.15,3.47,.15,4.47,1.41,.49,.61,.51,1.33,.34,2.09-.57,2.56-3.64,2.53-6.13,6.47-2.14,3.4-.4,5.67,.61,8.02,1.01,2.35,3.27,4.01,5.71,4.76,2.45,.75,5.08,.67,7.61,.28,5.93-.91,11.85-3.77,14.99-8.88,1.73-2.81,2.51-6.11,2.88-9.39,.58-5.25,.15-10.62-1.42-15.66-1.66-5.33-4.58-10.23-8.23-14.45-3.19-3.68-7.14-7.26-7.77-12.09-.07-.55-.04-1.22,.43-1.5"/><path class="cls-2" d="M854.18,660.27l-43.97,1.59-24.12-8.55-.72,9.44-8.45,.31c-5.48-24,1.31-29.32,1.74-29.63h.02l2.17-17.88,41.73,3.21,2.78,17.73,18.62,7.85,.36,.11c2.63,.89,5.09,2.3,7.23,4.09,2.13,1.79,3.95,3.97,5.28,6.4,1.4,2.54,.06,5.22-2.65,5.32Z"/><path class="cls-4" d="M854.18,660.27l-43.97,1.59-24.12-8.55-.72,9.44-8.45,.31c-5.48-24,1.31-29.32,1.74-29.63h.02l47.01,15.83,18.29-4.92,.36,.11c2.63,.89,5.09,2.3,7.23,4.09,2.13,1.79,3.95,3.97,5.28,6.4,1.4,2.54,.06,5.22-2.65,5.32Z"/><path class="cls-2" d="M672.53,638.95l-39.77-18.82-17.48-18.68-4.99,8.05-7.65-3.62c6.17-23.83,14.64-25.43,15.17-25.51h.02l23.08-13.56,28.53,26.32-11.57,11.44,12.92,15.54,.26,.26c1.92,2,3.46,4.38,4.54,6.96,1.07,2.57,1.68,5.34,1.74,8.11,.07,2.9-2.35,4.67-4.81,3.5Z"/><path class="cls-4" d="M672.53,638.95l-39.77-18.82-17.48-18.68-4.99,8.05-7.65-3.62c6.17-23.83,14.64-25.43,15.17-25.51h.02l34.46,35.69,18.5,4.05,.26,.26c1.92,2,3.46,4.38,4.54,6.96,1.07,2.57,1.68,5.34,1.74,8.11,.07,2.9-2.35,4.67-4.81,3.5Z"/><polygon class="cls-13" points="796.46 441.64 825.11 525.79 825.87 625.02 776.61 624.54 775.92 536.62 744.52 446.78 796.46 441.64"/><path class="cls-13" d="M761.54,441.64l-20.02,84.85-68.9,70.83-40.33-29.73s54.47-48.29,58.46-56.02c5.47-10.61,9.03-29.31,7.04-60.58l63.76-9.35Z"/><path class="cls-12" d="M770.01,253.79s12.67-6.42,19.19,8.08c6.28,13.97-1.97,23.76-3.03,27.14-1.06,3.38,3.58,4.02,4.41,1.9,0,0-.88,4.64-6.54,3.42-5.66-1.22-4.6-10.41-4.6-10.41l-9.44-26.71v-3.42Z"/><g><path class="cls-2" d="M709.86,174.94l30.89-16.55,11.88,22.17c2.92,5.45,.09,12.21-5.85,13.94l-12.21,3.57c-6.2,1.81-12.83-.97-15.88-6.66l-8.82-16.47Z"/><path class="cls-2" d="M731.09,144.01h7.82v21.42c0,1.35-1.1,2.45-2.45,2.45h-2.92c-1.35,0-2.45-1.1-2.45-2.45v-21.42h0Z" transform="translate(1456.52 -53.68) rotate(151.82)"/><path class="cls-2" d="M750.56,169.04h7.82v21.42c0,1.35-1.1,2.45-2.45,2.45h-2.92c-1.35,0-2.45-1.1-2.45-2.45v-21.42h0Z" transform="translate(1234.72 790.36) rotate(-141.73)"/><path class="cls-2" d="M721.84,145.95h7.82v21.42c0,1.35-1.1,2.45-2.45,2.45h-2.92c-1.35,0-2.45-1.1-2.45-2.45v-21.42h0Z" transform="translate(1440.03 -45.67) rotate(151.82)"/><path class="cls-2" d="M715.09,152.58h7.82v21.42c0,1.35-1.1,2.45-2.45,2.45h-2.92c-1.35,0-2.45-1.1-2.45-2.45v-21.42h0Z" transform="translate(1430.47 -30.01) rotate(151.82)"/><path class="cls-2" d="M709.68,161.69h7.82v21.42c0,1.35-1.1,2.45-2.45,2.45h-2.92c-1.35,0-2.45-1.1-2.45-2.45v-21.42h0Z" transform="translate(1424.6 -10.3) rotate(151.82)"/></g><polygon class="cls-2" points="754.58 312.03 778.39 311.41 773.99 285.25 752.56 285.81 754.58 312.03"/><polygon class="cls-12" points="775.38 293.52 761.54 294.36 776.4 300.88 775.38 293.52"/><path class="cls-2" d="M747.42,275.36c1.02,8.02,6.28,15.46,13.85,18.5,10.09,4.05,20.47-1.29,23.18-11.92,2.7-10.63-3.29-22.54-13.38-26.59-.51-.2-1.01-.38-1.52-.54-9.6-2.96-19.09,2.36-21.65,12.46-.68,2.67-.81,5.41-.47,8.09Z"/><path class="cls-12" d="M748.2,280.68c19.72-5.78,23.09-22.71,23.91-26.25h0c-11.08-3.84-23.37-.79-25.69,11.51-1.16,6.16,.31,11.75,1.79,14.74Z"/><path class="cls-12" d="M754.53,284.38c.15,0,.29-.06,.4-.18,.93-.96,1.43-2.23,1.41-3.57-.02-1.34-.57-2.59-1.53-3.52-.96-.93-2.23-1.43-3.57-1.41h-.04c-1.32,.04-2.56,.58-3.48,1.53-.22,.23-.21,.59,.01,.82,.23,.22,.59,.21,.82-.01,.72-.74,1.68-1.14,2.71-1.18,1.03-.02,2.01,.37,2.75,1.08,.74,.72,1.16,1.68,1.18,2.71,.02,1.03-.37,2.01-1.08,2.75-.22,.23-.21,.59,.01,.82,.12,.11,.27,.17,.42,.16Z"/><circle class="cls-12" cx="779.6" cy="272.38" r="1.26" transform="translate(-44.19 214.61) rotate(-15.25)"/><circle class="cls-12" cx="771.62" cy="274.46" r="1.26" transform="translate(-45.02 212.59) rotate(-15.25)"/><path class="cls-12" d="M774.98,278.36c.07,0,.13-.02,.2-.04,1.15-.46,2.34-.84,3.54-1.14,.18-.04,.32-.17,.39-.33,.07-.17,.06-.36-.03-.52-1.29-2.24-2.59-4.48-3.89-6.72-.16-.28-.51-.37-.79-.21-.28,.16-.37,.51-.21,.79,1.17,2.02,2.34,4.04,3.51,6.06-1,.27-1.99,.61-2.96,1-.3,.12-.44,.45-.32,.75,.09,.23,.32,.37,.55,.36Z"/><path class="cls-12" d="M776.87,279.77l-7.05-1.6s.59,4.97,2.22,5.38c1.64,.41,4.83-3.78,4.83-3.78Z"/><polygon class="cls-5" points="767.72 311.69 776.92 304.34 780.06 309.22 774.94 321.74 767.72 311.69"/><polygon class="cls-5" points="767.72 311.69 754.22 305.28 750.28 312.6 759.26 322.14 767.72 311.69"/><path class="cls-5" d="M811.63,310.57c-7.35-1.94-31.57-1.35-31.57-1.35l-29.78,3.38-6.07,.11h-.01l-26.72-1.85s-21.25,113.34-19.55,142.51l99.54-11.99,15.1-73.93,.98-9.49c6.71-9.83,3.22-46.05-1.92-47.4Z"/><path class="cls-12" d="M778.42,322.07c.06,0,.11-.01,.17-.03,.18-.06,.32-.2,.37-.38,1.19-4.09,1.8-8.32,1.79-12.57,0-.32-.26-.58-.58-.58-.34,0-.58,.26-.58,.58,0,3.87-.5,7.71-1.51,11.44-3.52-2.65-6.97-5.45-10.27-8.34-.24-.21-.6-.19-.81,.05-.21,.24-.19,.6,.05,.81,3.53,3.09,7.24,6.08,11.01,8.9,.1,.08,.23,.12,.36,.11Z"/><path class="cls-12" d="M757.98,323.15c.14,0,.27-.06,.38-.15,3.3-3.08,6.38-6.46,9.15-10.03,.2-.25,.15-.61-.1-.81-.25-.2-.61-.15-.81,.1-2.6,3.35-5.47,6.52-8.55,9.44-2.19-3.06-4.55-6.05-7-8.9-.21-.24-.57-.27-.81-.06-.24,.21-.27,.57-.06,.81,2.57,2.99,5.03,6.13,7.31,9.35,.1,.14,.25,.22,.41,.24,.02,0,.05,0,.07,0Z"/><path class="cls-12" d="M767.33,269.45c.32-.75,1.03-1.14,1.7-1.3,.68-.15,1.38-.14,2.04,.19,.27,.14,.38,.47,.25,.74-.04,.08-.1,.15-.17,.2l-.02,.02c-.56,.4-1.06,.58-1.55,.76-.49,.17-.91,.28-1.55,.28h-.11c-.35,0-.63-.29-.63-.64,0-.09,.02-.17,.05-.24Z"/><path class="cls-12" d="M775.41,266.99c.32-.75,1.03-1.14,1.7-1.3,.68-.15,1.38-.14,2.04,.19,.27,.14,.38,.47,.25,.74-.04,.08-.1,.15-.17,.2l-.02,.02c-.56,.4-1.06,.58-1.55,.76-.49,.17-.91,.28-1.55,.28h-.11c-.35,0-.63-.29-.63-.64,0-.09,.02-.17,.05-.24Z"/><path class="cls-5" d="M736.75,312.2l-13.74-50.9,18.66-60.41-34.57-14.35-25.34,63.22c-4.13,9-4.23,19.33-.28,28.41l31.87,100.87,23.41-66.85Z"/><path class="cls-12" d="M764.58,445.85s-.04,0-.06,0c-.27-.04-.47-.29-.43-.56l5.89-46.16c.01-.08,.04-.16,.09-.23,.1-.14,9.74-13.73,10.04-30.38,.37-20.82-12.93-55.03-13.07-55.38-.1-.26,.03-.55,.28-.65,.26-.1,.55,.03,.65,.28,.13,.35,13.51,34.75,13.14,55.76-.29,16.18-9.24,29.51-10.15,30.83l-5.88,46.04c-.03,.25-.25,.44-.5,.44Z"/><path class="cls-12" d="M767.07,329.36c-.28,0-.56-.08-.81-.23-.36-.22-.62-.56-.72-.97-.1-.41-.04-.83,.18-1.19,.22-.36,.56-.62,.97-.72,.41-.1,.83-.04,1.19,.18,.36,.22,.62,.56,.72,.97,.21,.84-.31,1.7-1.15,1.91-.13,.03-.25,.05-.38,.05Zm0-2.16s-.09,0-.14,.02c-.15,.04-.28,.13-.36,.26-.08,.13-.1,.29-.07,.44s.13,.28,.26,.36c.13,.08,.29,.1,.44,.07,.15-.04,.28-.13,.36-.26,.08-.13,.1-.29,.07-.44-.04-.15-.13-.28-.26-.36-.09-.05-.19-.08-.3-.08Z"/><path class="cls-12" d="M774.53,359.4c-.71,0-1.35-.48-1.53-1.2-.1-.41-.04-.83,.18-1.19,.22-.36,.56-.62,.97-.72,.41-.1,.83-.04,1.19,.18,.36,.22,.62,.56,.72,.97,.21,.84-.31,1.7-1.15,1.91-.13,.03-.25,.05-.38,.05Zm0-2.16s-.09,0-.14,.02c-.31,.08-.5,.39-.42,.7,.08,.31,.39,.5,.7,.42,.15-.04,.28-.13,.36-.26,.08-.13,.1-.29,.07-.44-.04-.15-.13-.28-.26-.36-.09-.05-.19-.08-.3-.08Z"/><path class="cls-12" d="M771.62,388.55c-.71,0-1.35-.48-1.53-1.2-.21-.85,.31-1.7,1.15-1.91,.85-.21,1.7,.31,1.91,1.15,.21,.84-.31,1.7-1.15,1.91-.13,.03-.25,.05-.38,.05Zm0-2.16s-.09,0-.14,.02c-.15,.04-.28,.13-.36,.26-.08,.13-.1,.29-.07,.44,.08,.31,.39,.5,.7,.42,.31-.08,.5-.39,.42-.7-.04-.15-.13-.28-.26-.36-.09-.05-.19-.08-.3-.08Z"/><path class="cls-12" d="M763.59,421.64c-.71,0-1.35-.48-1.53-1.2-.21-.84,.31-1.7,1.15-1.91,.85-.21,1.7,.31,1.91,1.15,.21,.84-.31,1.7-1.15,1.91-.13,.03-.25,.05-.38,.05Zm0-2.16s-.09,0-.14,.02c-.15,.04-.28,.13-.36,.26-.08,.13-.1,.29-.07,.44,.04,.15,.13,.28,.26,.36,.13,.08,.29,.1,.44,.07,.31-.08,.5-.39,.42-.7-.04-.15-.13-.28-.26-.36-.09-.05-.19-.08-.3-.08Z"/><g><polygon class="cls-8" points="85.46 297.99 82.81 294.99 189.28 200.77 314 238.23 390.69 120.74 543.94 93.54 677.76 12.98 679.82 16.41 545.37 97.35 545.01 97.42 393.09 124.38 315.71 242.92 190.26 205.25 85.46 297.99"/><g><circle class="cls-4" cx="84.13" cy="296.49" r="12.7" transform="translate(-215.35 223.74) rotate(-60.51)"/><path class="cls-8" d="M84.11,311.19c-2.5,0-4.98-.65-7.21-1.91-3.42-1.93-5.88-5.08-6.93-8.86-2.17-7.81,2.42-15.92,10.23-18.09h0c7.81-2.17,15.92,2.42,18.09,10.23,1.05,3.78,.56,7.75-1.37,11.16-1.93,3.42-5.08,5.88-8.86,6.93-1.31,.36-2.63,.54-3.95,.54Zm-2.84-25.01c-5.68,1.58-9.02,7.48-7.45,13.17,.76,2.75,2.55,5.04,5.04,6.45,2.49,1.41,5.37,1.76,8.13,1,2.75-.76,5.04-2.55,6.45-5.04,1.41-2.49,1.76-5.37,1-8.13-.76-2.75-2.55-5.04-5.04-6.45-2.49-1.41-5.37-1.76-8.13-1h0Z"/></g><g><circle class="cls-4" cx="189.77" cy="203.01" r="12.7"/><path class="cls-8" d="M189.77,217.71c-8.1,0-14.7-6.59-14.7-14.7s6.59-14.7,14.7-14.7,14.7,6.59,14.7,14.7-6.59,14.7-14.7,14.7Zm0-25.39c-5.9,0-10.7,4.8-10.7,10.7s4.8,10.7,10.7,10.7,10.7-4.8,10.7-10.7-4.8-10.7-10.7-10.7Z"/></g><g><circle class="cls-4" cx="314.86" cy="240.57" r="12.7"/><path class="cls-8" d="M314.86,255.27c-8.1,0-14.7-6.59-14.7-14.7s6.59-14.7,14.7-14.7,14.7,6.59,14.7,14.7-6.59,14.7-14.7,14.7Zm0-25.39c-5.9,0-10.7,4.8-10.7,10.7s4.8,10.7,10.7,10.7,10.7-4.8,10.7-10.7-4.8-10.7-10.7-10.7Z"/></g><g><circle class="cls-4" cx="391.89" cy="122.56" r="12.7"/><path class="cls-8" d="M391.89,137.26c-8.1,0-14.7-6.59-14.7-14.7s6.59-14.7,14.7-14.7,14.7,6.59,14.7,14.7-6.59,14.7-14.7,14.7Zm0-25.39c-5.9,0-10.7,4.8-10.7,10.7s4.8,10.7,10.7,10.7,10.7-4.8,10.7-10.7-4.8-10.7-10.7-10.7Z"/></g><g><circle class="cls-4" cx="544.66" cy="95.45" r="12.7" transform="translate(4.93 215.7) rotate(-22.5)"/><path class="cls-8" d="M544.66,110.14c-8.1,0-14.7-6.59-14.7-14.7s6.59-14.7,14.7-14.7,14.7,6.59,14.7,14.7-6.59,14.7-14.7,14.7Zm0-25.39c-5.9,0-10.7,4.8-10.7,10.7s4.8,10.7,10.7,10.7,10.7-4.8,10.7-10.7-4.8-10.7-10.7-10.7Z"/></g><g><circle class="cls-4" cx="678.79" cy="14.7" r="12.7"/><path class="cls-8" d="M678.79,29.39c-8.1,0-14.7-6.59-14.7-14.7s6.59-14.7,14.7-14.7,14.7,6.59,14.7,14.7-6.59,14.7-14.7,14.7Zm0-25.39c-5.9,0-10.7,4.8-10.7,10.7s4.8,10.7,10.7,10.7,10.7-4.8,10.7-10.7-4.8-10.7-10.7-10.7Z"/></g></g></g></g></svg>